<svg xmlns="http://www.w3.org/2000/svg" xmlns:xlink="http://www.w3.org/1999/xlink" width="500" zoomAndPan="magnify" viewBox="0 0 375 374.999991" height="500" preserveAspectRatio="xMidYMid meet" version="1.2"><defs><clipPath id="c01ffe083d"><path d="M 112.5 112.5 L 262.5 112.5 L 262.5 262.5 L 112.5 262.5 Z M 112.5 112.5 "/></clipPath></defs><g id="92f1d3a01f"><g clip-rule="nonzero" clip-path="url(#c01ffe083d)"><path style=" stroke:none;fill-rule:evenodd;fill:#d81b60;fill-opacity:1;" d="M 187.503906 112.492188 C 228.765625 112.492188 262.507812 146.230469 262.507812 187.496094 C 262.507812 228.761719 228.769531 262.5 187.503906 262.5 C 146.238281 262.5 112.5 228.761719 112.5 187.496094 C 112.5 146.234375 146.238281 112.492188 187.503906 112.492188 Z M 187.503906 112.492188 "/></g><path style=" stroke:none;fill-rule:evenodd;fill:#fffffe;fill-opacity:1;" d="M 182.484375 158.324219 C 184.046875 157.535156 185.730469 157.136719 187.488281 157.136719 C 189.246094 157.136719 190.929688 157.535156 192.492188 158.324219 C 193.621094 158.894531 194.652344 159.664062 195.53125 160.582031 C 196.359375 159.1875 196.832031 157.558594 196.832031 155.824219 C 196.832031 150.671875 192.640625 146.480469 187.488281 146.480469 C 182.335938 146.480469 178.144531 150.671875 178.144531 155.824219 C 178.144531 157.558594 178.617188 159.1875 179.445312 160.582031 C 180.324219 159.664062 181.355469 158.894531 182.484375 158.324219 Z M 187.488281 147.992188 C 189.503906 147.992188 191.144531 149.632812 191.144531 151.648438 C 191.144531 153.664062 189.503906 155.304688 187.488281 155.304688 C 185.472656 155.304688 183.832031 153.664062 183.832031 151.648438 C 183.832031 149.632812 185.472656 147.992188 187.488281 147.992188 Z M 187.488281 147.992188 "/><path style=" stroke:none;fill-rule:evenodd;fill:#fffffe;fill-opacity:1;" d="M 180.507812 162.03125 C 182.21875 163.957031 184.714844 165.171875 187.488281 165.171875 C 190.261719 165.171875 192.757812 163.957031 194.46875 162.03125 C 192.695312 160.03125 190.1875 158.898438 187.488281 158.898438 C 184.789062 158.898438 182.28125 160.03125 180.507812 162.03125 Z M 180.507812 162.03125 "/><path style=" stroke:none;fill-rule:evenodd;fill:#fffffe;fill-opacity:1;" d="M 189.378906 151.648438 C 189.378906 150.605469 188.53125 149.753906 187.488281 149.753906 C 186.445312 149.753906 185.59375 150.605469 185.59375 151.648438 C 185.59375 152.691406 186.445312 153.542969 187.488281 153.542969 C 188.53125 153.542969 189.378906 152.691406 189.378906 151.648438 Z M 189.378906 151.648438 "/><path style=" stroke:none;fill-rule:evenodd;fill:#fffffe;fill-opacity:1;" d="M 159.214844 201.121094 C 154.0625 201.121094 149.871094 205.3125 149.871094 210.46875 C 149.871094 212.203125 150.34375 213.828125 151.171875 215.222656 C 152.046875 214.304688 153.082031 213.535156 154.210938 212.964844 C 155.773438 212.175781 157.457031 211.777344 159.214844 211.777344 C 160.972656 211.777344 162.65625 212.175781 164.21875 212.964844 C 165.347656 213.535156 166.378906 214.304688 167.257812 215.222656 C 168.085938 213.828125 168.558594 212.203125 168.558594 210.46875 C 168.558594 205.3125 164.367188 201.121094 159.214844 201.121094 Z M 159.214844 209.949219 C 157.199219 209.949219 155.558594 208.308594 155.558594 206.289062 C 155.558594 204.273438 157.199219 202.632812 159.214844 202.632812 C 161.230469 202.632812 162.871094 204.273438 162.871094 206.289062 C 162.871094 208.308594 161.230469 209.949219 159.214844 209.949219 Z M 159.214844 209.949219 "/><path style=" stroke:none;fill-rule:evenodd;fill:#fffffe;fill-opacity:1;" d="M 159.214844 213.542969 C 156.515625 213.542969 154.007812 214.675781 152.234375 216.671875 C 153.945312 218.597656 156.441406 219.8125 159.214844 219.8125 C 161.988281 219.8125 164.484375 218.597656 166.195312 216.671875 C 164.421875 214.675781 161.914062 213.542969 159.214844 213.542969 Z M 159.214844 213.542969 "/><path style=" stroke:none;fill-rule:evenodd;fill:#fffffe;fill-opacity:1;" d="M 159.214844 204.398438 C 158.171875 204.398438 157.320312 205.246094 157.320312 206.289062 C 157.320312 207.335938 158.171875 208.183594 159.214844 208.183594 C 160.257812 208.183594 161.109375 207.335938 161.109375 206.289062 C 161.109375 205.246094 160.257812 204.398438 159.214844 204.398438 Z M 159.214844 204.398438 "/><path style=" stroke:none;fill-rule:evenodd;fill:#fffffe;fill-opacity:1;" d="M 215.792969 201.121094 C 210.640625 201.121094 206.445312 205.3125 206.445312 210.46875 C 206.445312 212.203125 206.921875 213.828125 207.75 215.222656 C 208.625 214.304688 209.660156 213.535156 210.789062 212.964844 C 212.347656 212.175781 214.03125 211.777344 215.792969 211.777344 C 217.550781 211.777344 219.234375 212.175781 220.792969 212.964844 C 221.925781 213.535156 222.957031 214.304688 223.835938 215.222656 C 224.660156 213.828125 225.136719 212.203125 225.136719 210.46875 C 225.136719 205.3125 220.945312 201.121094 215.792969 201.121094 Z M 215.792969 209.949219 C 213.777344 209.949219 212.136719 208.308594 212.136719 206.289062 C 212.136719 204.273438 213.777344 202.632812 215.792969 202.632812 C 217.808594 202.632812 219.449219 204.273438 219.449219 206.289062 C 219.449219 208.308594 217.808594 209.949219 215.792969 209.949219 Z M 215.792969 209.949219 "/><path style=" stroke:none;fill-rule:evenodd;fill:#fffffe;fill-opacity:1;" d="M 215.792969 213.542969 C 213.09375 213.542969 210.585938 214.675781 208.808594 216.671875 C 210.523438 218.597656 213.019531 219.8125 215.792969 219.8125 C 218.566406 219.8125 221.058594 218.597656 222.773438 216.671875 C 221 214.675781 218.492188 213.542969 215.792969 213.542969 Z M 215.792969 213.542969 "/><path style=" stroke:none;fill-rule:evenodd;fill:#fffffe;fill-opacity:1;" d="M 215.792969 204.398438 C 214.75 204.398438 213.898438 205.246094 213.898438 206.289062 C 213.898438 207.335938 214.75 208.183594 215.792969 208.183594 C 216.835938 208.183594 217.683594 207.335938 217.683594 206.289062 C 217.683594 205.246094 216.835938 204.398438 215.792969 204.398438 Z M 215.792969 204.398438 "/><path style=" stroke:none;fill-rule:evenodd;fill:#fffffe;fill-opacity:1;" d="M 170.222656 188.074219 L 170.222656 192.957031 C 170.222656 193.394531 170.578125 193.75 171.015625 193.75 L 173.058594 193.75 C 173.453125 193.75 173.800781 194.011719 173.90625 194.390625 C 174.203125 195.433594 174.621094 196.441406 175.152344 197.390625 C 175.34375 197.734375 175.285156 198.164062 175.003906 198.441406 L 173.558594 199.890625 C 173.25 200.199219 173.25 200.699219 173.558594 201.007812 L 177.011719 204.460938 C 177.320312 204.769531 177.820312 204.769531 178.128906 204.460938 L 179.574219 203.015625 C 179.746094 202.84375 179.972656 202.757812 180.199219 202.757812 C 180.347656 202.757812 180.496094 202.792969 180.628906 202.867188 C 181.578125 203.398438 182.589844 203.816406 183.628906 204.113281 C 184.007812 204.21875 184.269531 204.566406 184.269531 204.960938 L 184.269531 207.003906 C 184.269531 207.441406 184.625 207.796875 185.0625 207.796875 L 189.945312 207.796875 C 190.378906 207.796875 190.734375 207.441406 190.734375 207.003906 L 190.734375 204.960938 C 190.734375 204.566406 190.996094 204.21875 191.375 204.113281 C 192.417969 203.816406 193.429688 203.398438 194.375 202.867188 C 194.722656 202.675781 195.152344 202.734375 195.429688 203.015625 L 196.875 204.460938 C 197.183594 204.769531 197.6875 204.769531 197.996094 204.460938 L 201.449219 201.007812 C 201.757812 200.699219 201.757812 200.199219 201.449219 199.890625 L 200 198.441406 C 199.722656 198.164062 199.664062 197.734375 199.855469 197.390625 C 200.386719 196.441406 200.804688 195.429688 201.097656 194.390625 C 201.207031 194.011719 201.554688 193.75 201.949219 193.75 L 203.992188 193.75 C 204.429688 193.75 204.78125 193.394531 204.78125 192.957031 L 204.78125 188.074219 C 204.78125 187.636719 204.429688 187.285156 203.992188 187.285156 L 201.949219 187.285156 C 201.554688 187.285156 201.207031 187.023438 201.101562 186.644531 C 200.804688 185.601562 200.382812 184.589844 199.855469 183.640625 C 199.664062 183.296875 199.722656 182.867188 200.003906 182.589844 L 201.449219 181.144531 C 201.757812 180.835938 201.757812 180.332031 201.449219 180.023438 L 197.996094 176.570312 C 197.6875 176.261719 197.183594 176.261719 196.875 176.570312 L 195.429688 178.019531 C 195.152344 178.296875 194.722656 178.355469 194.378906 178.164062 C 193.425781 177.632812 192.417969 177.214844 191.375 176.917969 C 190.996094 176.8125 190.734375 176.464844 190.734375 176.070312 L 190.734375 174.027344 C 190.734375 173.589844 190.378906 173.234375 189.945312 173.234375 L 185.0625 173.234375 C 184.625 173.234375 184.269531 173.589844 184.269531 174.027344 L 184.269531 176.070312 C 184.269531 176.464844 184.007812 176.8125 183.628906 176.917969 C 182.589844 177.214844 181.578125 177.632812 180.628906 178.164062 C 180.285156 178.355469 179.855469 178.296875 179.578125 178.015625 L 178.128906 176.570312 C 177.820312 176.261719 177.320312 176.261719 177.011719 176.570312 L 173.558594 180.023438 C 173.25 180.332031 173.25 180.835938 173.558594 181.144531 L 175.003906 182.589844 C 175.285156 182.867188 175.34375 183.296875 175.152344 183.644531 C 174.621094 184.589844 174.203125 185.601562 173.90625 186.644531 C 173.800781 187.023438 173.453125 187.285156 173.058594 187.285156 L 171.015625 187.285156 C 170.578125 187.285156 170.222656 187.636719 170.222656 188.074219 Z M 187.503906 180.921875 C 190.148438 180.921875 192.546875 181.996094 194.285156 183.734375 C 196.023438 185.472656 197.097656 187.871094 197.097656 190.515625 C 197.097656 195.804688 192.792969 200.109375 187.503906 200.109375 C 182.210938 200.109375 177.910156 195.804688 177.910156 190.515625 C 177.910156 185.226562 182.210938 180.921875 187.503906 180.921875 Z M 187.503906 180.921875 "/><path style=" stroke:none;fill-rule:evenodd;fill:#fffffe;fill-opacity:1;" d="M 195.335938 190.515625 C 195.335938 186.203125 191.816406 182.683594 187.503906 182.683594 C 183.191406 182.683594 179.671875 186.203125 179.671875 190.515625 C 179.671875 194.828125 183.191406 198.347656 187.503906 198.347656 C 191.816406 198.347656 195.335938 194.828125 195.335938 190.515625 Z M 195.335938 190.515625 "/><path style=" stroke:none;fill-rule:evenodd;fill:#fffffe;fill-opacity:1;" d="M 204.4375 159.140625 C 216.148438 165.414062 223.421875 177.554688 223.421875 190.828125 C 223.421875 192.1875 223.347656 193.554688 223.195312 194.894531 C 223.140625 195.378906 223.488281 195.8125 223.972656 195.867188 C 224.007812 195.871094 224.042969 195.875 224.074219 195.875 C 224.515625 195.875 224.898438 195.542969 224.949219 195.089844 C 225.109375 193.6875 225.1875 192.25 225.1875 190.828125 C 225.1875 183.878906 223.28125 177.089844 219.671875 171.191406 C 216.167969 165.460938 211.1875 160.753906 205.269531 157.585938 C 204.839844 157.355469 204.304688 157.519531 204.074219 157.949219 C 203.84375 158.378906 204.007812 158.910156 204.4375 159.140625 Z M 204.4375 159.140625 "/><path style=" stroke:none;fill-rule:evenodd;fill:#fffffe;fill-opacity:1;" d="M 150.933594 195.875 C 150.964844 195.875 151 195.871094 151.03125 195.867188 C 151.515625 195.8125 151.863281 195.378906 151.808594 194.894531 C 151.660156 193.550781 151.582031 192.183594 151.582031 190.828125 C 151.582031 177.570312 158.847656 165.433594 170.542969 159.15625 C 170.972656 158.925781 171.132812 158.390625 170.902344 157.960938 C 170.671875 157.53125 170.136719 157.371094 169.707031 157.601562 C 163.796875 160.773438 158.824219 165.476562 155.324219 171.207031 C 151.722656 177.101562 149.816406 183.886719 149.816406 190.828125 C 149.816406 192.25 149.898438 193.683594 150.054688 195.089844 C 150.109375 195.539062 150.488281 195.875 150.933594 195.875 Z M 150.933594 195.875 "/><path style=" stroke:none;fill-rule:evenodd;fill:#fffffe;fill-opacity:1;" d="M 203.796875 222.851562 C 201.324219 224.109375 198.707031 225.082031 196.015625 225.734375 C 193.246094 226.40625 190.382812 226.75 187.503906 226.75 C 184.625 226.75 181.757812 226.40625 178.988281 225.734375 C 176.296875 225.082031 173.679688 224.109375 171.207031 222.851562 C 170.773438 222.628906 170.242188 222.800781 170.023438 223.234375 C 169.800781 223.667969 169.972656 224.199219 170.40625 224.421875 C 173 225.742188 175.746094 226.761719 178.570312 227.449219 C 181.480469 228.15625 184.484375 228.515625 187.503906 228.515625 C 190.523438 228.515625 193.527344 228.15625 196.433594 227.449219 C 199.257812 226.761719 202.003906 225.746094 204.597656 224.421875 C 205.03125 224.203125 205.203125 223.671875 204.980469 223.234375 C 204.761719 222.800781 204.230469 222.628906 203.796875 222.851562 Z M 203.796875 222.851562 "/></g></svg>