<svg xmlns="http://www.w3.org/2000/svg" xmlns:xlink="http://www.w3.org/1999/xlink" width="500" zoomAndPan="magnify" viewBox="0 0 375 374.999991" height="500" preserveAspectRatio="xMidYMid meet" version="1.2"><defs><clipPath id="584a38a3a6"><path d="M 112.5 112.5 L 262.5 112.5 L 262.5 262.5 L 112.5 262.5 Z M 112.5 112.5 "/></clipPath></defs><g id="93057f93cb"><g clip-rule="nonzero" clip-path="url(#584a38a3a6)"><path style=" stroke:none;fill-rule:nonzero;fill:#000000;fill-opacity:1;" d="M 262.5 187.5 C 262.5 188.726562 262.46875 189.953125 262.410156 191.179688 C 262.347656 192.40625 262.257812 193.628906 262.140625 194.851562 C 262.019531 196.074219 261.867188 197.289062 261.6875 198.503906 C 261.507812 199.71875 261.296875 200.929688 261.058594 202.132812 C 260.820312 203.335938 260.550781 204.53125 260.253906 205.722656 C 259.953125 206.914062 259.625 208.097656 259.269531 209.269531 C 258.914062 210.445312 258.527344 211.609375 258.117188 212.765625 C 257.703125 213.921875 257.261719 215.066406 256.789062 216.203125 C 256.320312 217.335938 255.824219 218.457031 255.300781 219.566406 C 254.773438 220.675781 254.222656 221.773438 253.644531 222.855469 C 253.066406 223.9375 252.460938 225.003906 251.828125 226.058594 C 251.199219 227.109375 250.542969 228.148438 249.859375 229.167969 C 249.179688 230.1875 248.472656 231.191406 247.742188 232.175781 C 247.007812 233.164062 246.253906 234.128906 245.476562 235.078125 C 244.695312 236.027344 243.894531 236.957031 243.070312 237.867188 C 242.246094 238.777344 241.402344 239.664062 240.53125 240.53125 C 239.664062 241.402344 238.777344 242.246094 237.867188 243.070312 C 236.957031 243.894531 236.027344 244.695312 235.078125 245.476562 C 234.128906 246.253906 233.164062 247.007812 232.175781 247.742188 C 231.191406 248.472656 230.1875 249.179688 229.167969 249.859375 C 228.148438 250.542969 227.109375 251.199219 226.058594 251.828125 C 225.003906 252.460938 223.9375 253.066406 222.855469 253.644531 C 221.773438 254.222656 220.675781 254.773438 219.566406 255.300781 C 218.457031 255.824219 217.335938 256.320312 216.203125 256.789062 C 215.066406 257.261719 213.921875 257.703125 212.765625 258.117188 C 211.609375 258.527344 210.445312 258.914062 209.269531 259.269531 C 208.097656 259.625 206.914062 259.953125 205.722656 260.253906 C 204.53125 260.550781 203.335938 260.820312 202.132812 261.058594 C 200.929688 261.296875 199.71875 261.507812 198.503906 261.6875 C 197.289062 261.867188 196.074219 262.019531 194.851562 262.140625 C 193.628906 262.257812 192.40625 262.347656 191.179688 262.410156 C 189.953125 262.46875 188.726562 262.5 187.5 262.5 C 186.273438 262.5 185.046875 262.46875 183.820312 262.410156 C 182.59375 262.347656 181.371094 262.257812 180.148438 262.140625 C 178.925781 262.019531 177.710938 261.867188 176.496094 261.6875 C 175.28125 261.507812 174.070312 261.296875 172.867188 261.058594 C 171.664062 260.820312 170.46875 260.550781 169.277344 260.253906 C 168.085938 259.953125 166.902344 259.625 165.730469 259.269531 C 164.554688 258.914062 163.390625 258.527344 162.234375 258.117188 C 161.078125 257.703125 159.933594 257.261719 158.796875 256.789062 C 157.664062 256.320312 156.542969 255.824219 155.433594 255.300781 C 154.324219 254.773438 153.226562 254.222656 152.144531 253.644531 C 151.0625 253.066406 149.996094 252.460938 148.941406 251.828125 C 147.890625 251.199219 146.851562 250.542969 145.832031 249.859375 C 144.8125 249.179688 143.808594 248.472656 142.824219 247.742188 C 141.835938 247.007812 140.871094 246.253906 139.921875 245.476562 C 138.972656 244.695312 138.042969 243.894531 137.132812 243.070312 C 136.222656 242.246094 135.335938 241.402344 134.46875 240.53125 C 133.597656 239.664062 132.753906 238.777344 131.929688 237.867188 C 131.105469 236.957031 130.304688 236.027344 129.523438 235.078125 C 128.746094 234.128906 127.992188 233.164062 127.257812 232.175781 C 126.527344 231.191406 125.820312 230.1875 125.140625 229.167969 C 124.457031 228.148438 123.800781 227.109375 123.171875 226.058594 C 122.539062 225.003906 121.933594 223.9375 121.355469 222.855469 C 120.777344 221.773438 120.226562 220.675781 119.699219 219.566406 C 119.175781 218.457031 118.679688 217.335938 118.210938 216.203125 C 117.738281 215.066406 117.296875 213.921875 116.882812 212.765625 C 116.46875 211.609375 116.085938 210.445312 115.730469 209.269531 C 115.375 208.097656 115.046875 206.914062 114.746094 205.722656 C 114.449219 204.53125 114.179688 203.335938 113.941406 202.132812 C 113.703125 200.929688 113.492188 199.71875 113.3125 198.503906 C 113.132812 197.289062 112.980469 196.074219 112.859375 194.851562 C 112.742188 193.628906 112.652344 192.40625 112.589844 191.179688 C 112.53125 189.953125 112.5 188.726562 112.5 187.5 C 112.5 186.273438 112.53125 185.046875 112.589844 183.820312 C 112.652344 182.59375 112.742188 181.371094 112.859375 180.148438 C 112.980469 178.925781 113.132812 177.710938 113.3125 176.496094 C 113.492188 175.28125 113.703125 174.070312 113.941406 172.867188 C 114.179688 171.664062 114.449219 170.46875 114.746094 169.277344 C 115.046875 168.085938 115.375 166.902344 115.730469 165.730469 C 116.085938 164.554688 116.46875 163.390625 116.882812 162.234375 C 117.296875 161.078125 117.738281 159.933594 118.210938 158.796875 C 118.679688 157.664062 119.175781 156.542969 119.699219 155.433594 C 120.226562 154.324219 120.777344 153.226562 121.355469 152.144531 C 121.933594 151.0625 122.539062 149.996094 123.171875 148.941406 C 123.800781 147.890625 124.457031 146.851562 125.140625 145.832031 C 125.820312 144.8125 126.527344 143.808594 127.257812 142.824219 C 127.992188 141.835938 128.746094 140.871094 129.523438 139.921875 C 130.304688 138.972656 131.105469 138.042969 131.929688 137.132812 C 132.753906 136.222656 133.597656 135.335938 134.46875 134.46875 C 135.335938 133.597656 136.222656 132.753906 137.132812 131.929688 C 138.042969 131.105469 138.972656 130.304688 139.921875 129.523438 C 140.871094 128.746094 141.835938 127.992188 142.824219 127.257812 C 143.808594 126.527344 144.8125 125.820312 145.832031 125.140625 C 146.851562 124.457031 147.890625 123.800781 148.941406 123.171875 C 149.996094 122.539062 151.0625 121.933594 152.144531 121.355469 C 153.226562 120.777344 154.324219 120.226562 155.433594 119.699219 C 156.542969 119.175781 157.664062 118.679688 158.796875 118.210938 C 159.933594 117.738281 161.078125 117.296875 162.234375 116.882812 C 163.390625 116.46875 164.554688 116.085938 165.730469 115.730469 C 166.902344 115.375 168.085938 115.046875 169.277344 114.746094 C 170.46875 114.449219 171.664062 114.179688 172.867188 113.941406 C 174.070312 113.703125 175.28125 113.492188 176.496094 113.3125 C 177.710938 113.132812 178.925781 112.980469 180.148438 112.859375 C 181.371094 112.742188 182.59375 112.652344 183.820312 112.589844 C 185.046875 112.53125 186.273438 112.5 187.5 112.5 C 188.726562 112.5 189.953125 112.53125 191.179688 112.589844 C 192.40625 112.652344 193.628906 112.742188 194.851562 112.859375 C 196.074219 112.980469 197.289062 113.132812 198.503906 113.3125 C 199.71875 113.492188 200.929688 113.703125 202.132812 113.941406 C 203.335938 114.179688 204.53125 114.449219 205.722656 114.746094 C 206.914062 115.046875 208.097656 115.375 209.269531 115.730469 C 210.445312 116.085938 211.609375 116.46875 212.765625 116.882812 C 213.921875 117.296875 215.066406 117.738281 216.203125 118.210938 C 217.335938 118.679688 218.457031 119.175781 219.566406 119.699219 C 220.675781 120.226562 221.773438 120.777344 222.855469 121.355469 C 223.9375 121.933594 225.003906 122.539062 226.058594 123.171875 C 227.109375 123.800781 228.148438 124.457031 229.167969 125.140625 C 230.1875 125.820312 231.191406 126.527344 232.175781 127.257812 C 233.164062 127.992188 234.128906 128.746094 235.078125 129.523438 C 236.027344 130.304688 236.957031 131.105469 237.867188 131.929688 C 238.777344 132.753906 239.664062 133.597656 240.53125 134.46875 C 241.402344 135.335938 242.246094 136.222656 243.070312 137.132812 C 243.894531 138.042969 244.695312 138.972656 245.476562 139.921875 C 246.253906 140.871094 247.007812 141.835938 247.742188 142.824219 C 248.472656 143.808594 249.179688 144.8125 249.859375 145.832031 C 250.542969 146.851562 251.199219 147.890625 251.828125 148.941406 C 252.460938 149.996094 253.066406 151.0625 253.644531 152.144531 C 254.222656 153.226562 254.773438 154.324219 255.300781 155.433594 C 255.824219 156.542969 256.320312 157.664062 256.789062 158.796875 C 257.261719 159.933594 257.703125 161.078125 258.117188 162.234375 C 258.527344 163.390625 258.914062 164.554688 259.269531 165.730469 C 259.625 166.902344 259.953125 168.085938 260.253906 169.277344 C 260.550781 170.46875 260.820312 171.664062 261.058594 172.867188 C 261.296875 174.070312 261.507812 175.28125 261.6875 176.496094 C 261.867188 177.710938 262.019531 178.925781 262.140625 180.148438 C 262.257812 181.371094 262.347656 182.59375 262.410156 183.820312 C 262.46875 185.046875 262.5 186.273438 262.5 187.5 Z M 262.5 187.5 "/></g><path style=" stroke:none;fill-rule:evenodd;fill:#fefefe;fill-opacity:1;" d="M 216.25 210.679688 L 194.644531 210.679688 C 192.113281 210.679688 190.03125 208.597656 190.03125 206.066406 L 190.03125 198.300781 C 190.03125 195.769531 192.113281 193.6875 194.644531 193.6875 L 216.25 193.6875 C 218.78125 193.6875 220.863281 195.769531 220.863281 198.300781 L 220.863281 206.066406 C 220.863281 208.597656 218.78125 210.679688 216.25 210.679688 Z M 230.484375 226.601562 L 144.515625 226.601562 C 141.757812 226.601562 139.507812 224.351562 139.507812 221.597656 L 139.507812 167.074219 L 147.496094 167.074219 L 147.496094 217.769531 C 147.496094 218.390625 148.003906 218.894531 148.621094 218.894531 L 226.433594 218.894531 C 227.054688 218.894531 227.558594 218.390625 227.503906 217.769531 L 227.503906 179.621094 L 227.558594 179.566406 L 227.503906 179.511719 L 227.503906 167.074219 L 235.550781 167.074219 L 235.550781 221.597656 C 235.550781 224.351562 233.300781 226.601562 230.484375 226.601562 Z M 215.183594 188.625 L 194.082031 188.625 C 193.464844 188.625 192.957031 188.117188 192.957031 187.5 C 192.957031 186.882812 193.464844 186.375 194.082031 186.375 L 215.183594 186.375 C 215.800781 186.375 216.308594 186.882812 216.308594 187.5 C 216.308594 188.117188 215.800781 188.625 215.183594 188.625 Z M 181.199219 203.308594 L 160.4375 203.308594 C 159.816406 203.308594 159.3125 202.804688 159.3125 202.183594 C 159.3125 201.566406 159.816406 201.058594 160.4375 201.058594 L 181.199219 201.058594 C 181.816406 201.058594 182.324219 201.566406 182.324219 202.183594 C 182.324219 202.804688 181.816406 203.308594 181.199219 203.308594 Z M 181.199219 210.679688 L 160.4375 210.679688 C 159.816406 210.679688 159.3125 210.175781 159.3125 209.554688 C 159.3125 208.9375 159.816406 208.429688 160.4375 208.429688 L 181.199219 208.429688 C 181.816406 208.429688 182.324219 208.9375 182.324219 209.554688 C 182.324219 210.175781 181.816406 210.679688 181.199219 210.679688 Z M 181.199219 195.941406 L 160.4375 195.941406 C 159.816406 195.941406 159.3125 195.433594 159.3125 194.8125 C 159.3125 194.195312 159.816406 193.6875 160.4375 193.6875 L 181.199219 193.6875 C 181.816406 193.6875 182.324219 194.195312 182.324219 194.8125 C 182.324219 195.433594 181.816406 195.941406 181.199219 195.941406 Z M 194.644531 195.941406 C 193.351562 195.941406 192.28125 197.007812 192.28125 198.300781 L 192.28125 206.066406 C 192.28125 207.359375 193.351562 208.429688 194.644531 208.429688 L 216.25 208.429688 C 217.546875 208.429688 218.613281 207.359375 218.613281 206.066406 L 218.613281 198.300781 C 218.613281 197.007812 217.546875 195.941406 216.25 195.941406 Z M 139.507812 164.824219 L 139.507812 153.460938 C 139.507812 150.648438 141.757812 148.394531 144.515625 148.394531 L 214.621094 148.394531 L 214.621094 164.824219 Z M 216.871094 148.394531 L 230.484375 148.394531 C 233.300781 148.394531 235.550781 150.648438 235.550781 153.460938 L 235.550781 164.824219 L 216.871094 164.824219 Z M 229.472656 158.863281 L 221.707031 158.863281 C 221.089844 158.863281 220.582031 158.355469 220.582031 157.734375 C 220.582031 157.117188 221.089844 156.609375 221.707031 156.609375 L 229.472656 156.609375 C 230.09375 156.609375 230.597656 157.117188 230.597656 157.734375 C 230.597656 158.355469 230.09375 158.863281 229.472656 158.863281 Z M 207.980469 158.863281 L 183.167969 158.863281 C 182.492188 158.863281 182.042969 158.355469 182.042969 157.734375 C 182.042969 157.117188 182.492188 156.609375 183.167969 156.609375 L 207.980469 156.609375 C 208.597656 156.609375 209.105469 157.117188 209.105469 157.734375 C 209.105469 158.355469 208.597656 158.863281 207.980469 158.863281 Z M 173.265625 162.070312 L 170.734375 162.070312 C 169.101562 162.070312 167.695312 160.660156 167.695312 159.03125 L 167.695312 156.5 C 167.695312 154.8125 169.101562 153.460938 170.734375 153.460938 L 173.265625 153.460938 C 174.953125 153.460938 176.304688 154.8125 176.304688 156.5 L 176.304688 159.03125 C 176.304688 160.660156 174.953125 162.070312 173.265625 162.070312 Z M 170.734375 155.710938 C 170.339844 155.710938 169.945312 156.046875 169.945312 156.5 L 169.945312 159.03125 C 169.945312 159.425781 170.339844 159.816406 170.734375 159.816406 L 173.265625 159.816406 C 173.714844 159.816406 174.054688 159.425781 174.054688 159.03125 L 174.054688 156.5 C 174.054688 156.046875 173.714844 155.710938 173.265625 155.710938 Z M 161.5625 162.070312 L 159.03125 162.070312 C 157.34375 162.070312 155.992188 160.660156 155.992188 159.03125 L 155.992188 156.5 C 155.992188 154.8125 157.34375 153.460938 159.03125 153.460938 L 161.5625 153.460938 C 163.25 153.460938 164.601562 154.8125 164.601562 156.5 L 164.601562 159.03125 C 164.601562 160.660156 163.25 162.070312 161.5625 162.070312 Z M 159.03125 155.710938 C 158.582031 155.710938 158.242188 156.046875 158.242188 156.5 L 158.242188 159.03125 C 158.242188 159.425781 158.582031 159.816406 159.03125 159.816406 L 161.5625 159.816406 C 162.011719 159.816406 162.351562 159.425781 162.351562 159.03125 L 162.351562 156.5 C 162.351562 156.046875 162.011719 155.710938 161.5625 155.710938 Z M 149.859375 162.070312 L 147.328125 162.070312 C 145.640625 162.070312 144.289062 160.660156 144.289062 159.03125 L 144.289062 156.5 C 144.289062 154.8125 145.640625 153.460938 147.328125 153.460938 L 149.859375 153.460938 C 151.546875 153.460938 152.898438 154.8125 152.898438 156.5 L 152.898438 159.03125 C 152.898438 160.660156 151.546875 162.070312 149.859375 162.070312 Z M 147.328125 155.710938 C 146.878906 155.710938 146.539062 156.046875 146.539062 156.5 L 146.539062 159.03125 C 146.539062 159.425781 146.878906 159.816406 147.328125 159.816406 L 149.859375 159.816406 C 150.308594 159.816406 150.648438 159.425781 150.648438 159.03125 L 150.648438 156.5 C 150.648438 156.046875 150.308594 155.710938 149.859375 155.710938 Z M 225.253906 167.074219 L 149.746094 167.074219 L 149.746094 178.441406 L 225.253906 178.441406 Z M 149.746094 180.691406 L 149.746094 216.644531 L 225.253906 216.644531 L 225.253906 180.691406 Z M 149.746094 180.691406 "/></g></svg>