<svg xmlns="http://www.w3.org/2000/svg" xmlns:xlink="http://www.w3.org/1999/xlink" width="500" zoomAndPan="magnify" viewBox="0 0 375 374.999991" height="500" preserveAspectRatio="xMidYMid meet" version="1.2"><defs><clipPath id="a82e5a80e6"><path d="M 112.5 112.5 L 262.5 112.5 L 262.5 262.5 L 112.5 262.5 Z M 112.5 112.5 "/></clipPath></defs><g id="d3b775abb9"><g clip-rule="nonzero" clip-path="url(#a82e5a80e6)"><path style=" stroke:none;fill-rule:nonzero;fill:#0d6c80;fill-opacity:1;" d="M 262.5 187.5 C 262.5 188.726562 262.46875 189.953125 262.410156 191.179688 C 262.347656 192.40625 262.257812 193.628906 262.140625 194.851562 C 262.019531 196.074219 261.867188 197.289062 261.6875 198.503906 C 261.507812 199.71875 261.296875 200.929688 261.058594 202.132812 C 260.820312 203.335938 260.550781 204.53125 260.253906 205.722656 C 259.953125 206.914062 259.625 208.097656 259.269531 209.269531 C 258.914062 210.445312 258.527344 211.609375 258.117188 212.765625 C 257.703125 213.921875 257.261719 215.066406 256.789062 216.203125 C 256.320312 217.335938 255.824219 218.457031 255.300781 219.566406 C 254.773438 220.675781 254.222656 221.773438 253.644531 222.855469 C 253.066406 223.9375 252.460938 225.003906 251.828125 226.058594 C 251.199219 227.109375 250.542969 228.148438 249.859375 229.167969 C 249.179688 230.1875 248.472656 231.191406 247.742188 232.175781 C 247.007812 233.164062 246.253906 234.128906 245.476562 235.078125 C 244.695312 236.027344 243.894531 236.957031 243.070312 237.867188 C 242.246094 238.777344 241.402344 239.664062 240.53125 240.53125 C 239.664062 241.402344 238.777344 242.246094 237.867188 243.070312 C 236.957031 243.894531 236.027344 244.695312 235.078125 245.476562 C 234.128906 246.253906 233.164062 247.007812 232.175781 247.742188 C 231.191406 248.472656 230.1875 249.179688 229.167969 249.859375 C 228.148438 250.542969 227.109375 251.199219 226.058594 251.828125 C 225.003906 252.460938 223.9375 253.066406 222.855469 253.644531 C 221.773438 254.222656 220.675781 254.773438 219.566406 255.300781 C 218.457031 255.824219 217.335938 256.320312 216.203125 256.789062 C 215.066406 257.261719 213.921875 257.703125 212.765625 258.117188 C 211.609375 258.527344 210.445312 258.914062 209.269531 259.269531 C 208.097656 259.625 206.914062 259.953125 205.722656 260.253906 C 204.53125 260.550781 203.335938 260.820312 202.132812 261.058594 C 200.929688 261.296875 199.71875 261.507812 198.503906 261.6875 C 197.289062 261.867188 196.074219 262.019531 194.851562 262.140625 C 193.628906 262.257812 192.40625 262.347656 191.179688 262.410156 C 189.953125 262.46875 188.726562 262.5 187.5 262.5 C 186.273438 262.5 185.046875 262.46875 183.820312 262.410156 C 182.59375 262.347656 181.371094 262.257812 180.148438 262.140625 C 178.925781 262.019531 177.710938 261.867188 176.496094 261.6875 C 175.28125 261.507812 174.070312 261.296875 172.867188 261.058594 C 171.664062 260.820312 170.46875 260.550781 169.277344 260.253906 C 168.085938 259.953125 166.902344 259.625 165.730469 259.269531 C 164.554688 258.914062 163.390625 258.527344 162.234375 258.117188 C 161.078125 257.703125 159.933594 257.261719 158.796875 256.789062 C 157.664062 256.320312 156.542969 255.824219 155.433594 255.300781 C 154.324219 254.773438 153.226562 254.222656 152.144531 253.644531 C 151.0625 253.066406 149.996094 252.460938 148.941406 251.828125 C 147.890625 251.199219 146.851562 250.542969 145.832031 249.859375 C 144.8125 249.179688 143.808594 248.472656 142.824219 247.742188 C 141.835938 247.007812 140.871094 246.253906 139.921875 245.476562 C 138.972656 244.695312 138.042969 243.894531 137.132812 243.070312 C 136.222656 242.246094 135.335938 241.402344 134.46875 240.53125 C 133.597656 239.664062 132.753906 238.777344 131.929688 237.867188 C 131.105469 236.957031 130.304688 236.027344 129.523438 235.078125 C 128.746094 234.128906 127.992188 233.164062 127.257812 232.175781 C 126.527344 231.191406 125.820312 230.1875 125.140625 229.167969 C 124.457031 228.148438 123.800781 227.109375 123.171875 226.058594 C 122.539062 225.003906 121.933594 223.9375 121.355469 222.855469 C 120.777344 221.773438 120.226562 220.675781 119.699219 219.566406 C 119.175781 218.457031 118.679688 217.335938 118.210938 216.203125 C 117.738281 215.066406 117.296875 213.921875 116.882812 212.765625 C 116.46875 211.609375 116.085938 210.445312 115.730469 209.269531 C 115.375 208.097656 115.046875 206.914062 114.746094 205.722656 C 114.449219 204.53125 114.179688 203.335938 113.941406 202.132812 C 113.703125 200.929688 113.492188 199.71875 113.3125 198.503906 C 113.132812 197.289062 112.980469 196.074219 112.859375 194.851562 C 112.742188 193.628906 112.652344 192.40625 112.589844 191.179688 C 112.53125 189.953125 112.5 188.726562 112.5 187.5 C 112.5 186.273438 112.53125 185.046875 112.589844 183.820312 C 112.652344 182.59375 112.742188 181.371094 112.859375 180.148438 C 112.980469 178.925781 113.132812 177.710938 113.3125 176.496094 C 113.492188 175.28125 113.703125 174.070312 113.941406 172.867188 C 114.179688 171.664062 114.449219 170.46875 114.746094 169.277344 C 115.046875 168.085938 115.375 166.902344 115.730469 165.730469 C 116.085938 164.554688 116.46875 163.390625 116.882812 162.234375 C 117.296875 161.078125 117.738281 159.933594 118.210938 158.796875 C 118.679688 157.664062 119.175781 156.542969 119.699219 155.433594 C 120.226562 154.324219 120.777344 153.226562 121.355469 152.144531 C 121.933594 151.0625 122.539062 149.996094 123.171875 148.941406 C 123.800781 147.890625 124.457031 146.851562 125.140625 145.832031 C 125.820312 144.8125 126.527344 143.808594 127.257812 142.824219 C 127.992188 141.835938 128.746094 140.871094 129.523438 139.921875 C 130.304688 138.972656 131.105469 138.042969 131.929688 137.132812 C 132.753906 136.222656 133.597656 135.335938 134.46875 134.46875 C 135.335938 133.597656 136.222656 132.753906 137.132812 131.929688 C 138.042969 131.105469 138.972656 130.304688 139.921875 129.523438 C 140.871094 128.746094 141.835938 127.992188 142.824219 127.257812 C 143.808594 126.527344 144.8125 125.820312 145.832031 125.140625 C 146.851562 124.457031 147.890625 123.800781 148.941406 123.171875 C 149.996094 122.539062 151.0625 121.933594 152.144531 121.355469 C 153.226562 120.777344 154.324219 120.226562 155.433594 119.699219 C 156.542969 119.175781 157.664062 118.679688 158.796875 118.210938 C 159.933594 117.738281 161.078125 117.296875 162.234375 116.882812 C 163.390625 116.46875 164.554688 116.085938 165.730469 115.730469 C 166.902344 115.375 168.085938 115.046875 169.277344 114.746094 C 170.46875 114.449219 171.664062 114.179688 172.867188 113.941406 C 174.070312 113.703125 175.28125 113.492188 176.496094 113.3125 C 177.710938 113.132812 178.925781 112.980469 180.148438 112.859375 C 181.371094 112.742188 182.59375 112.652344 183.820312 112.589844 C 185.046875 112.53125 186.273438 112.5 187.5 112.5 C 188.726562 112.5 189.953125 112.53125 191.179688 112.589844 C 192.40625 112.652344 193.628906 112.742188 194.851562 112.859375 C 196.074219 112.980469 197.289062 113.132812 198.503906 113.3125 C 199.71875 113.492188 200.929688 113.703125 202.132812 113.941406 C 203.335938 114.179688 204.53125 114.449219 205.722656 114.746094 C 206.914062 115.046875 208.097656 115.375 209.269531 115.730469 C 210.445312 116.085938 211.609375 116.46875 212.765625 116.882812 C 213.921875 117.296875 215.066406 117.738281 216.203125 118.210938 C 217.335938 118.679688 218.457031 119.175781 219.566406 119.699219 C 220.675781 120.226562 221.773438 120.777344 222.855469 121.355469 C 223.9375 121.933594 225.003906 122.539062 226.058594 123.171875 C 227.109375 123.800781 228.148438 124.457031 229.167969 125.140625 C 230.1875 125.820312 231.191406 126.527344 232.175781 127.257812 C 233.164062 127.992188 234.128906 128.746094 235.078125 129.523438 C 236.027344 130.304688 236.957031 131.105469 237.867188 131.929688 C 238.777344 132.753906 239.664062 133.597656 240.53125 134.46875 C 241.402344 135.335938 242.246094 136.222656 243.070312 137.132812 C 243.894531 138.042969 244.695312 138.972656 245.476562 139.921875 C 246.253906 140.871094 247.007812 141.835938 247.742188 142.824219 C 248.472656 143.808594 249.179688 144.8125 249.859375 145.832031 C 250.542969 146.851562 251.199219 147.890625 251.828125 148.941406 C 252.460938 149.996094 253.066406 151.0625 253.644531 152.144531 C 254.222656 153.226562 254.773438 154.324219 255.300781 155.433594 C 255.824219 156.542969 256.320312 157.664062 256.789062 158.796875 C 257.261719 159.933594 257.703125 161.078125 258.117188 162.234375 C 258.527344 163.390625 258.914062 164.554688 259.269531 165.730469 C 259.625 166.902344 259.953125 168.085938 260.253906 169.277344 C 260.550781 170.46875 260.820312 171.664062 261.058594 172.867188 C 261.296875 174.070312 261.507812 175.28125 261.6875 176.496094 C 261.867188 177.710938 262.019531 178.925781 262.140625 180.148438 C 262.257812 181.371094 262.347656 182.59375 262.410156 183.820312 C 262.46875 185.046875 262.5 186.273438 262.5 187.5 Z M 262.5 187.5 "/></g><path style=" stroke:none;fill-rule:evenodd;fill:#fefefe;fill-opacity:1;" d="M 139.507812 206.40625 L 139.507812 162.125 C 139.507812 154.640625 145.640625 148.566406 153.121094 148.566406 C 157.285156 148.566406 157.34375 147.832031 157.230469 152.730469 L 156.046875 152.730469 C 154.191406 152.730469 152.671875 154.246094 152.671875 156.105469 L 152.671875 199.597656 L 151.828125 199.597656 C 146.652344 199.597656 142.09375 202.296875 139.507812 206.40625 Z M 139.507812 206.40625 "/><path style=" stroke:none;fill-rule:evenodd;fill:#fefefe;fill-opacity:1;" d="M 234.367188 226.492188 L 151.828125 226.492188 C 145.078125 226.492188 139.507812 220.921875 139.507812 214.167969 C 139.507812 207.359375 145.078125 201.847656 151.828125 201.847656 L 154.921875 201.847656 L 154.921875 156.105469 C 154.921875 155.484375 155.429688 154.980469 156.046875 154.980469 L 234.3125 154.980469 C 234.929688 154.980469 235.4375 155.484375 235.4375 156.105469 L 235.492188 225.367188 C 235.492188 225.984375 234.988281 226.492188 234.367188 226.492188 Z M 184.066406 192.453125 C 178.890625 192.453125 178.835938 192.84375 178.328125 188.117188 C 178.105469 188.0625 177.933594 187.949219 177.710938 187.894531 C 173.996094 190.820312 174.222656 190.539062 170.621094 186.882812 C 168.933594 185.191406 170.847656 183.394531 171.914062 182.097656 C 171.859375 181.875 171.746094 181.648438 171.691406 181.480469 C 166.964844 180.972656 167.359375 180.917969 167.359375 175.742188 C 167.359375 173.378906 169.945312 173.433594 171.691406 173.265625 C 171.746094 173.039062 171.859375 172.871094 171.914062 172.644531 C 168.933594 168.933594 169.269531 169.15625 172.925781 165.558594 C 174.558594 163.867188 176.359375 165.78125 177.710938 166.851562 C 177.933594 166.792969 178.105469 166.683594 178.328125 166.625 C 178.835938 161.898438 178.890625 162.292969 184.066406 162.292969 C 186.429688 162.292969 186.320312 164.882812 186.542969 166.625 C 186.710938 166.683594 186.9375 166.792969 187.164062 166.851562 C 190.820312 163.925781 190.59375 164.207031 194.25 167.863281 C 195.941406 169.550781 194.027344 171.351562 192.957031 172.644531 C 193.015625 172.871094 193.125 173.039062 193.183594 173.265625 C 197.910156 173.773438 197.515625 173.828125 197.515625 179.003906 C 197.515625 181.367188 194.871094 181.253906 193.183594 181.480469 C 193.125 181.703125 193.015625 181.875 192.957031 182.097656 C 195.941406 185.8125 195.546875 185.585938 191.945312 189.1875 C 190.257812 190.875 188.457031 188.960938 187.164062 187.894531 C 186.9375 187.949219 186.710938 188.0625 186.542969 188.117188 C 186.320312 189.808594 186.429688 192.453125 184.066406 192.453125 Z M 177.597656 185.417969 C 178.046875 185.417969 178.777344 185.925781 179.679688 186.207031 C 181.085938 186.65625 180.523438 190.257812 180.859375 190.257812 L 184.066406 190.199219 L 184.40625 187.164062 C 184.519531 186.148438 185.472656 186.261719 186.769531 185.53125 C 188.0625 184.855469 189.863281 187.554688 190.425781 187.554688 L 192.675781 185.304688 L 190.761719 182.886719 C 190.089844 182.097656 190.875 181.535156 191.269531 180.074219 C 191.71875 178.722656 195.320312 179.285156 195.320312 178.949219 L 195.265625 175.742188 L 192.226562 175.402344 C 191.214844 175.289062 191.324219 174.335938 190.59375 173.039062 C 189.917969 171.746094 192.621094 169.945312 192.621094 169.382812 L 190.371094 167.132812 L 188.007812 169.046875 C 187.21875 169.664062 186.601562 168.933594 185.191406 168.484375 C 183.785156 168.089844 184.40625 164.882812 184.011719 164.488281 L 180.804688 164.488281 L 180.46875 167.582031 C 180.355469 168.59375 179.398438 168.484375 178.105469 169.15625 C 176.808594 169.890625 175.066406 167.1875 174.445312 167.1875 L 172.195312 169.4375 L 174.109375 171.800781 C 174.785156 172.589844 173.996094 173.207031 173.601562 174.617188 C 173.152344 176.023438 169.550781 175.460938 169.550781 175.796875 L 169.609375 179.003906 L 172.644531 179.339844 C 173.660156 179.453125 173.546875 180.410156 174.222656 181.703125 C 174.953125 183 172.253906 184.800781 172.253906 185.363281 L 174.503906 187.613281 C 174.503906 187.613281 176.980469 185.417969 177.597656 185.417969 Z M 182.4375 184.179688 C 178.667969 184.179688 175.570312 181.140625 175.570312 177.371094 C 175.570312 173.601562 178.667969 170.507812 182.4375 170.507812 C 186.207031 170.507812 189.300781 173.601562 189.300781 177.371094 C 189.300781 181.140625 186.207031 184.179688 182.4375 184.179688 Z M 182.4375 172.757812 C 176.414062 172.757812 176.414062 181.929688 182.4375 181.929688 C 188.457031 181.929688 188.457031 172.757812 182.4375 172.757812 Z M 170.621094 211.976562 L 180.691406 216.308594 L 180.691406 207.640625 Z M 215.746094 216.871094 L 215.746094 207.078125 L 213.101562 207.078125 L 213.101562 216.871094 Z M 217.996094 207.078125 L 217.996094 216.871094 L 223.679688 216.871094 C 225.027344 216.871094 226.152344 215.800781 226.152344 214.449219 L 226.152344 209.5 C 226.152344 208.148438 225.027344 207.078125 223.679688 207.078125 Z M 210.847656 216.871094 L 210.847656 213.101562 L 182.941406 213.101562 L 182.941406 216.871094 Z M 181.140625 218.894531 C 178.441406 217.882812 168.707031 213.605469 167.300781 213.042969 C 166.402344 212.648438 166.402344 211.355469 167.300781 210.960938 L 181.3125 204.941406 C 181.480469 204.828125 181.648438 204.828125 181.816406 204.828125 L 223.679688 204.828125 C 226.265625 204.828125 228.402344 206.910156 228.402344 209.5 L 228.402344 214.449219 C 228.402344 217.039062 226.265625 219.121094 223.679688 219.121094 L 181.816406 219.121094 C 181.535156 219.121094 181.3125 219.0625 181.140625 218.894531 Z M 182.941406 210.847656 L 210.847656 210.847656 L 210.847656 207.078125 L 182.941406 207.078125 Z M 160.378906 208.316406 C 157.34375 208.316406 160.269531 198.300781 168.203125 198.300781 L 215.96875 198.300781 C 219.625 198.300781 222.609375 195.320312 222.609375 191.605469 C 222.609375 187.949219 219.625 184.96875 215.96875 184.96875 L 201.117188 184.96875 C 199.652344 184.96875 199.652344 182.71875 201.117188 182.71875 L 215.96875 182.71875 C 220.863281 182.71875 224.859375 186.710938 224.859375 191.605469 C 224.859375 196.558594 220.863281 200.554688 215.96875 200.554688 L 168.203125 200.554688 C 164.542969 200.554688 161.507812 203.535156 161.507812 207.191406 C 161.507812 207.8125 161 208.316406 160.378906 208.316406 Z M 160.378906 208.316406 "/></g></svg>