<svg xmlns="http://www.w3.org/2000/svg" xmlns:xlink="http://www.w3.org/1999/xlink" width="500" zoomAndPan="magnify" viewBox="0 0 375 374.999991" height="500" preserveAspectRatio="xMidYMid meet" version="1.2"><defs><clipPath id="f6d8a5fb34"><path d="M 121.519531 149 L 253.519531 149 L 253.519531 183 L 121.519531 183 Z M 121.519531 149 "/></clipPath><clipPath id="8fe67e2e30"><path d="M 224 122.558594 L 247 122.558594 L 247 146 L 224 146 Z M 224 122.558594 "/></clipPath><clipPath id="fd53cffa8f"><path d="M 126 142.835938 L 273 142.835938 L 273 227 L 126 227 Z M 126 142.835938 "/></clipPath><clipPath id="fd63d1b806"><path d="M 93.050781 193 L 134 193 L 134 233 L 93.050781 233 Z M 93.050781 193 "/></clipPath><clipPath id="34d7e18d08"><path d="M 101 118 L 245 118 L 245 208 L 101 208 Z M 101 118 "/></clipPath><clipPath id="13188fcfd3"><path d="M 76.105469 113.171875 L 275.625 96.070312 L 284.015625 193.964844 L 84.496094 211.0625 Z M 76.105469 113.171875 "/></clipPath><clipPath id="93dfbbd61c"><path d="M 283.996094 194 L 84.476562 211.101562 L 76.085938 113.210938 L 275.605469 96.109375 Z M 283.996094 194 "/></clipPath><clipPath id="4b401be040"><path d="M 238 107 L 277 107 L 277 145 L 238 145 Z M 238 107 "/></clipPath><clipPath id="25fe07b808"><path d="M 76.105469 113.171875 L 275.625 96.070312 L 284.015625 193.964844 L 84.496094 211.0625 Z M 76.105469 113.171875 "/></clipPath><clipPath id="0fb1912429"><path d="M 283.996094 194 L 84.476562 211.101562 L 76.085938 113.210938 L 275.605469 96.109375 Z M 283.996094 194 "/></clipPath><clipPath id="9eb12b6367"><path d="M 81 106 L 243 106 L 243 204 L 81 204 Z M 81 106 "/></clipPath><clipPath id="9f85a25757"><path d="M 76.105469 113.171875 L 275.625 96.070312 L 284.015625 193.964844 L 84.496094 211.0625 Z M 76.105469 113.171875 "/></clipPath><clipPath id="279948cef0"><path d="M 283.996094 194 L 84.476562 211.101562 L 76.085938 113.210938 L 275.605469 96.109375 Z M 283.996094 194 "/></clipPath><clipPath id="85ffea5888"><path d="M 244 237 L 278 237 L 278 251 L 244 251 Z M 244 237 "/></clipPath><clipPath id="fce4346eb4"><path d="M 235.808594 244.421875 L 275.933594 227.621094 L 284.042969 246.992188 L 243.917969 263.792969 Z M 235.808594 244.421875 "/></clipPath><clipPath id="142359046d"><path d="M 244.023438 264.039062 L 284.148438 247.238281 L 276.035156 227.871094 L 235.910156 244.667969 Z M 244.023438 264.039062 "/></clipPath><clipPath id="05617a606b"><path d="M 237 243 L 248 243 L 248 254 L 237 254 Z M 237 243 "/></clipPath><clipPath id="3db58efdce"><path d="M 235.808594 244.421875 L 275.933594 227.621094 L 284.042969 246.992188 L 243.917969 263.792969 Z M 235.808594 244.421875 "/></clipPath><clipPath id="3dec771fbc"><path d="M 244.023438 264.039062 L 284.148438 247.238281 L 276.035156 227.871094 L 235.910156 244.667969 Z M 244.023438 264.039062 "/></clipPath><clipPath id="066c1fdacc"><path d="M 244 233 L 281 233 L 281 249 L 244 249 Z M 244 233 "/></clipPath><clipPath id="4deea8d10b"><path d="M 235.808594 244.421875 L 275.933594 227.621094 L 284.042969 246.992188 L 243.917969 263.792969 Z M 235.808594 244.421875 "/></clipPath><clipPath id="de3b3f732f"><path d="M 244.023438 264.039062 L 284.148438 247.238281 L 276.035156 227.871094 L 235.910156 244.667969 Z M 244.023438 264.039062 "/></clipPath></defs><g id="f37e6543b4"><path style=" stroke:none;fill-rule:nonzero;fill:#000000;fill-opacity:1;" d="M 140.40625 162.238281 C 140.367188 163.15625 140.339844 164.082031 140.355469 165.007812 C 140.15625 165.386719 139.96875 165.769531 139.804688 166.152344 C 139.949219 164.832031 140.15625 163.519531 140.40625 162.238281 Z M 159.3125 133.230469 C 158.472656 134.167969 157.710938 135.214844 157.015625 136.351562 C 155.433594 137.144531 153.976562 138.007812 152.65625 138.933594 C 154.6875 136.835938 156.914062 134.917969 159.3125 133.230469 Z M 219.808594 138.925781 C 218.484375 138 217.023438 137.132812 215.441406 136.34375 C 214.746094 135.195312 213.972656 134.140625 213.125 133.195312 C 215.296875 134.722656 217.351562 136.445312 219.265625 138.355469 C 219.449219 138.535156 219.628906 138.734375 219.808594 138.925781 Z M 232.109375 165.003906 C 232.128906 164.0625 232.101562 163.136719 232.054688 162.210938 C 232.308594 163.492188 232.5 164.785156 232.644531 166.09375 C 232.484375 165.730469 232.308594 165.359375 232.109375 165.003906 Z M 231.921875 181.160156 C 231.824219 179.394531 231.328125 177.671875 230.453125 176 C 231.328125 172.921875 231.863281 169.792969 232.042969 166.664062 C 232.511719 167.789062 232.796875 168.933594 232.921875 170.089844 C 232.929688 170.519531 232.949219 170.957031 232.949219 171.394531 C 232.949219 174.714844 232.597656 177.984375 231.921875 181.160156 Z M 218.214844 205.429688 C 218.324219 205.265625 218.425781 205.09375 218.523438 204.921875 C 218.894531 204.644531 219.253906 204.351562 219.617188 204.0625 C 219.496094 204.179688 219.382812 204.3125 219.265625 204.429688 C 218.921875 204.773438 218.5625 205.097656 218.214844 205.429688 Z M 152.820312 204.035156 C 153.183594 204.332031 153.546875 204.628906 153.917969 204.90625 C 154.019531 205.078125 154.125 205.25 154.234375 205.421875 C 153.886719 205.09375 153.535156 204.769531 153.191406 204.429688 C 153.066406 204.300781 152.945312 204.167969 152.820312 204.035156 Z M 145.046875 160.382812 C 145.085938 163.425781 145.46875 166.550781 146.222656 169.738281 C 146.28125 169.976562 146.34375 170.214844 146.402344 170.453125 C 145.980469 170.824219 145.574219 171.203125 145.191406 171.585938 C 144.027344 172.75 143.066406 173.953125 142.324219 175.179688 C 141.484375 172.035156 141.007812 168.847656 140.902344 165.652344 C 141.851562 163.796875 143.246094 162.03125 145.046875 160.382812 Z M 142.464844 155.039062 C 143.371094 153.289062 144.6875 151.636719 146.363281 150.101562 C 145.523438 153.066406 145.078125 156.167969 145.039062 159.363281 C 144.582031 159.761719 144.144531 160.164062 143.734375 160.570312 C 142.585938 161.726562 141.636719 162.90625 140.878906 164.117188 C 140.882812 162.289062 141.015625 160.46875 141.265625 158.664062 C 141.617188 157.433594 142.023438 156.222656 142.464844 155.039062 Z M 149.589844 142.4375 C 149.273438 142.988281 148.96875 143.550781 148.683594 144.121094 C 148.328125 144.429688 147.984375 144.734375 147.660156 145.058594 C 148.273438 144.160156 148.917969 143.28125 149.589844 142.4375 Z M 155.269531 139.8125 C 153.171875 140.878906 151.304688 142.042969 149.695312 143.292969 C 150.207031 142.359375 150.769531 141.445312 151.371094 140.554688 C 152.867188 139.328125 154.601562 138.199219 156.527344 137.1875 C 156.070312 138.019531 155.644531 138.894531 155.269531 139.8125 Z M 165.28125 133.691406 C 164.882812 134.519531 164.523438 135.40625 164.207031 136.339844 C 162.871094 136.730469 161.574219 137.160156 160.316406 137.621094 C 158.78125 138.199219 157.347656 138.808594 155.996094 139.460938 C 156.414062 138.503906 156.875 137.597656 157.386719 136.742188 C 159.761719 135.566406 162.414062 134.539062 165.28125 133.691406 Z M 161.648438 131.675781 C 162.328125 131.25 163.015625 130.847656 163.71875 130.464844 C 165.285156 129.742188 166.988281 129.101562 168.785156 128.550781 C 167.542969 129.820312 166.476562 131.324219 165.582031 133.0625 C 162.816406 133.863281 160.230469 134.824219 157.894531 135.921875 C 158.972656 134.28125 160.230469 132.859375 161.648438 131.675781 Z M 169.601562 127.769531 C 169.480469 127.796875 169.363281 127.828125 169.242188 127.871094 C 169.386719 127.808594 169.535156 127.757812 169.679688 127.703125 C 169.652344 127.722656 169.625 127.742188 169.601562 127.769531 Z M 177.601562 126.128906 C 175.203125 126.441406 172.894531 126.890625 170.707031 127.464844 C 170.71875 127.417969 170.726562 127.367188 170.71875 127.320312 C 173.140625 126.464844 175.648438 125.804688 178.234375 125.363281 C 178.011719 125.59375 177.796875 125.851562 177.601562 126.128906 Z M 201.757812 127.453125 C 199.566406 126.875 197.257812 126.425781 194.855469 126.117188 C 194.664062 125.84375 194.460938 125.59375 194.242188 125.363281 C 196.800781 125.804688 199.316406 126.445312 201.75 127.300781 C 201.738281 127.351562 201.738281 127.398438 201.757812 127.453125 Z M 202.835938 127.742188 C 202.816406 127.722656 202.789062 127.703125 202.761719 127.675781 C 202.910156 127.738281 203.0625 127.789062 203.207031 127.847656 C 203.085938 127.816406 202.960938 127.777344 202.835938 127.742188 Z M 216.464844 139.449219 C 215.117188 138.800781 213.679688 138.183594 212.152344 137.617188 C 210.886719 137.152344 209.589844 136.722656 208.261719 136.332031 C 207.945312 135.398438 207.582031 134.519531 207.183594 133.679688 C 210.046875 134.53125 212.703125 135.550781 215.070312 136.734375 C 215.585938 137.589844 216.050781 138.496094 216.464844 139.449219 Z M 221.078125 140.535156 C 221.6875 141.425781 222.25 142.339844 222.757812 143.273438 C 221.152344 142.027344 219.292969 140.863281 217.195312 139.804688 C 216.816406 138.886719 216.394531 138.007812 215.929688 137.171875 C 217.855469 138.191406 219.582031 139.308594 221.078125 140.535156 Z M 223.765625 144.101562 C 223.480469 143.519531 223.167969 142.949219 222.84375 142.378906 C 223.539062 143.257812 224.207031 144.152344 224.835938 145.066406 C 224.492188 144.742188 224.136719 144.410156 223.765625 144.101562 Z M 228.742188 160.570312 C 228.324219 160.160156 227.886719 159.761719 227.429688 159.359375 C 227.382812 156.128906 226.933594 153 226.082031 150.007812 C 227.753906 151.558594 229.070312 153.222656 229.992188 154.992188 C 230.449219 156.207031 230.851562 157.445312 231.203125 158.703125 C 231.453125 160.496094 231.578125 162.296875 231.585938 164.109375 C 230.832031 162.898438 229.886719 161.71875 228.742188 160.570312 Z M 227.125 171.585938 C 226.78125 171.234375 226.410156 170.898438 226.035156 170.566406 C 226.105469 170.289062 226.179688 170.011719 226.238281 169.738281 C 227 166.550781 227.382812 163.425781 227.417969 160.390625 C 227.683594 160.628906 227.941406 160.875 228.183594 161.125 C 229.648438 162.582031 230.773438 164.097656 231.566406 165.644531 C 231.460938 168.894531 230.964844 172.148438 230.089844 175.351562 C 229.335938 174.058594 228.34375 172.804688 227.125 171.585938 Z M 228.164062 180.949219 C 227.449219 179.746094 226.515625 178.578125 225.386719 177.441406 C 225 177.066406 224.605469 176.699219 224.1875 176.328125 C 224.851562 174.601562 225.425781 172.871094 225.894531 171.128906 C 226.1875 171.402344 226.476562 171.671875 226.761719 171.949219 C 228.09375 173.28125 229.136719 174.65625 229.898438 176.058594 C 229.421875 177.707031 228.839844 179.339844 228.164062 180.949219 Z M 231.386719 182.761719 C 230.945312 183.953125 230.460938 185.089844 229.9375 186.1875 C 229.785156 184.59375 229.304688 183.03125 228.480469 181.511719 C 229.164062 179.9375 229.753906 178.347656 230.242188 176.734375 C 231.03125 178.394531 231.425781 180.101562 231.425781 181.839844 C 231.425781 182.144531 231.414062 182.457031 231.386719 182.761719 Z M 229.984375 187.265625 C 230.222656 186.804688 230.449219 186.328125 230.671875 185.84375 C 230.449219 186.527344 230.214844 187.195312 229.964844 187.871094 C 229.976562 187.664062 229.984375 187.472656 229.984375 187.265625 Z M 209.632812 209.207031 C 209.949219 208.453125 210.113281 207.6875 210.140625 206.894531 C 213.179688 205.3125 216.335938 203.28125 219.332031 200.71875 C 219.246094 202.023438 218.835938 203.3125 218.132812 204.5625 C 215.5 206.503906 212.589844 208.039062 209.632812 209.207031 Z M 205.097656 214.144531 C 205.058594 214.15625 205.019531 214.175781 204.980469 214.183594 C 205.660156 213.746094 206.289062 213.296875 206.851562 212.816406 C 207.8125 212.53125 208.765625 212.1875 209.691406 211.808594 C 208.203125 212.667969 206.671875 213.449219 205.097656 214.144531 Z M 165.558594 212.792969 C 166.101562 213.269531 166.707031 213.722656 167.371094 214.144531 C 167.355469 214.144531 167.34375 214.136719 167.332031 214.132812 C 165.769531 213.441406 164.234375 212.664062 162.75 211.796875 C 163.664062 212.171875 164.605469 212.511719 165.558594 212.792969 Z M 153.132812 200.71875 C 156.128906 203.273438 159.285156 205.304688 162.320312 206.886719 C 162.339844 207.671875 162.507812 208.449219 162.816406 209.203125 C 159.867188 208.023438 156.957031 206.496094 154.320312 204.558594 C 153.621094 203.304688 153.210938 202.015625 153.132812 200.71875 Z M 142.472656 187.246094 C 142.472656 187.453125 142.484375 187.652344 142.492188 187.863281 C 142.234375 187.175781 141.996094 186.488281 141.769531 185.792969 C 141.996094 186.289062 142.226562 186.777344 142.472656 187.246094 Z M 148.273438 176.324219 C 147.859375 176.695312 147.453125 177.058594 147.078125 177.441406 C 145.9375 178.574219 145.019531 179.746094 144.304688 180.933594 C 143.601562 179.273438 143.007812 177.585938 142.519531 175.878906 C 143.476562 174.167969 144.839844 172.539062 146.546875 171.015625 C 147.015625 172.789062 147.601562 174.5625 148.273438 176.324219 Z M 153.910156 166.148438 C 154.28125 168.007812 154.734375 169.878906 155.261719 171.746094 C 152.765625 172.996094 150.558594 174.410156 148.699219 175.964844 C 148.023438 174.191406 147.449219 172.414062 146.984375 170.640625 C 148.910156 168.992188 151.238281 167.488281 153.910156 166.148438 Z M 153.632812 145.164062 C 153.089844 147.667969 152.765625 150.367188 152.707031 153.257812 C 152.695312 153.621094 152.699219 153.984375 152.699219 154.347656 C 149.996094 155.699219 147.59375 157.226562 145.574219 158.910156 C 145.660156 155.625 146.171875 152.457031 147.109375 149.433594 C 148.941406 147.878906 151.140625 146.449219 153.632812 145.164062 Z M 153.785156 144.464844 C 151.359375 145.695312 149.214844 147.050781 147.402344 148.507812 C 147.882812 147.109375 148.453125 145.746094 149.113281 144.417969 C 150.78125 142.988281 152.765625 141.679688 155.011719 140.5 C 154.535156 141.75 154.117188 143.074219 153.785156 144.464844 Z M 163.023438 140.878906 C 161.125 141.433594 159.296875 142.0625 157.578125 142.75 C 156.472656 143.199219 155.414062 143.671875 154.402344 144.160156 C 154.757812 142.75 155.1875 141.402344 155.699219 140.144531 C 158.1875 138.894531 160.984375 137.808594 164.007812 136.90625 C 163.617188 138.144531 163.28125 139.46875 163.023438 140.878906 Z M 174.636719 134.636719 C 174.429688 135.882812 174.257812 137.1875 174.132812 138.527344 C 170.445312 139.039062 166.902344 139.765625 163.578125 140.710938 C 163.855469 139.289062 164.199219 137.964844 164.617188 136.730469 C 167.742188 135.828125 171.101562 135.128906 174.636719 134.636719 Z M 175.269531 131.566406 C 175.066406 132.375 174.886719 133.222656 174.722656 134.117188 C 171.273438 134.585938 167.945312 135.265625 164.816406 136.152344 C 165.152344 135.214844 165.523438 134.328125 165.941406 133.492188 C 168.859375 132.667969 171.996094 132.019531 175.269531 131.566406 Z M 185.96875 130.316406 C 182.535156 130.324219 179.167969 130.542969 175.945312 130.953125 C 176.457031 129.199219 177.097656 127.722656 177.863281 126.617188 C 180.492188 126.273438 183.203125 126.097656 185.96875 126.082031 Z M 196.523438 130.953125 C 193.292969 130.542969 189.925781 130.324219 186.484375 130.316406 L 186.484375 126.082031 C 189.265625 126.089844 191.976562 126.269531 194.585938 126.597656 C 195.367188 127.710938 196 129.1875 196.523438 130.953125 Z M 197.742188 134.109375 C 197.582031 133.222656 197.402344 132.367188 197.191406 131.5625 C 200.472656 132.011719 203.601562 132.660156 206.519531 133.488281 C 206.9375 134.320312 207.316406 135.214844 207.652344 136.152344 C 204.515625 135.261719 201.195312 134.578125 197.742188 134.109375 Z M 208.882812 140.691406 C 205.589844 139.757812 202.046875 139.023438 198.335938 138.515625 C 198.203125 137.171875 198.039062 135.875 197.828125 134.636719 C 201.367188 135.121094 204.726562 135.828125 207.851562 136.722656 C 208.261719 137.960938 208.605469 139.277344 208.882812 140.691406 Z M 218.0625 144.125 C 215.460938 142.871094 212.570312 141.769531 209.4375 140.859375 C 209.175781 139.449219 208.851562 138.136719 208.453125 136.902344 C 211.484375 137.808594 214.277344 138.886719 216.765625 140.128906 C 217.273438 141.386719 217.703125 142.722656 218.0625 144.125 Z M 218.675781 144.425781 C 218.339844 143.042969 217.929688 141.730469 217.453125 140.492188 C 219.695312 141.664062 221.671875 142.976562 223.339844 144.40625 C 223.996094 145.714844 224.570312 147.070312 225.046875 148.453125 C 223.222656 146.992188 221.078125 145.636719 218.675781 144.425781 Z M 219.769531 154.34375 C 219.769531 153.984375 219.769531 153.621094 219.761719 153.257812 C 219.695312 150.332031 219.371094 147.59375 218.816406 145.066406 C 221.304688 146.34375 223.5 147.777344 225.324219 149.339844 C 226.277344 152.398438 226.808594 155.59375 226.894531 158.902344 C 224.871094 157.226562 222.472656 155.699219 219.769531 154.34375 Z M 217.199219 171.746094 C 217.730469 169.898438 218.171875 168.050781 218.539062 166.21875 C 221.21875 167.574219 223.539062 169.089844 225.453125 170.746094 C 224.996094 172.484375 224.433594 174.238281 223.769531 175.972656 C 221.90625 174.410156 219.695312 173 217.199219 171.746094 Z M 221.523438 181.105469 C 219.789062 179.660156 217.738281 178.339844 215.421875 177.175781 C 216.03125 175.542969 216.570312 173.902344 217.054688 172.246094 C 219.542969 173.503906 221.734375 174.921875 223.574219 176.480469 C 222.964844 178.039062 222.28125 179.578125 221.523438 181.105469 Z M 225.722656 185.90625 C 225.042969 184.738281 224.148438 183.601562 223.042969 182.488281 C 222.691406 182.140625 222.308594 181.796875 221.925781 181.457031 C 222.691406 179.9375 223.375 178.394531 223.988281 176.847656 C 224.339844 177.164062 224.691406 177.480469 225.015625 177.804688 C 226.226562 179.023438 227.183594 180.265625 227.90625 181.550781 C 227.257812 183.019531 226.535156 184.476562 225.722656 185.90625 Z M 198.785156 210.492188 C 198.746094 210.101562 198.640625 209.710938 198.46875 209.328125 C 202.226562 207.878906 205.742188 206.113281 208.976562 204.046875 C 209.386719 204.867188 209.597656 205.714844 209.617188 206.582031 C 205.554688 208.664062 201.71875 209.921875 198.785156 210.492188 Z M 198.59375 212.035156 C 198.714844 211.710938 198.78125 211.367188 198.800781 211.023438 C 201.71875 210.453125 205.535156 209.222656 209.605469 207.164062 C 209.546875 207.945312 209.328125 208.71875 208.957031 209.464844 C 205.390625 210.808594 201.804688 211.648438 198.59375 212.035156 Z M 195.960938 214.972656 C 196.417969 214.6875 196.828125 214.375 197.183594 214.050781 C 199.859375 214.230469 202.757812 213.90625 205.613281 213.164062 C 204.835938 213.734375 203.949219 214.269531 202.988281 214.753906 C 200.777344 215.289062 199 215.300781 195.960938 214.972656 Z M 179.941406 216.445312 C 181.816406 216.988281 183.972656 217.300781 186.226562 217.300781 C 187.347656 217.300781 188.425781 217.226562 189.449219 217.09375 C 189.792969 217.433594 190.152344 217.710938 190.515625 217.917969 C 189.101562 218.042969 187.671875 218.113281 186.226562 218.113281 C 183.066406 218.113281 179.949219 217.796875 176.910156 217.1875 C 177.96875 217.09375 178.949219 216.851562 179.941406 216.445312 Z M 175.296875 214.050781 C 175.65625 214.375 176.066406 214.6875 176.519531 214.972656 C 173.464844 215.300781 171.683594 215.289062 169.460938 214.746094 C 168.5 214.265625 167.621094 213.734375 166.839844 213.160156 C 169.707031 213.90625 172.617188 214.230469 175.296875 214.050781 Z M 173.664062 211.023438 C 173.683594 211.359375 173.75 211.703125 173.867188 212.035156 C 170.660156 211.644531 167.066406 210.808594 163.5 209.460938 C 163.128906 208.710938 162.910156 207.945312 162.859375 207.164062 C 166.921875 209.214844 170.738281 210.453125 173.664062 211.023438 Z M 163.480469 204.035156 C 166.722656 206.113281 170.234375 207.878906 173.992188 209.320312 C 173.816406 209.703125 173.710938 210.09375 173.667969 210.492188 C 170.738281 209.917969 166.90625 208.660156 162.839844 206.574219 C 162.859375 205.703125 163.082031 204.855469 163.480469 204.035156 Z M 146.449219 186.421875 C 145.6875 187.851562 145.242188 189.320312 145.125 190.828125 C 144.363281 189.648438 143.648438 188.433594 142.996094 187.136719 C 143.015625 185.414062 143.445312 183.742188 144.246094 182.132812 C 144.898438 183.589844 145.632812 185.019531 146.449219 186.421875 Z M 150.542969 181.453125 C 150.148438 181.796875 149.769531 182.140625 149.414062 182.488281 C 148.3125 183.59375 147.421875 184.734375 146.738281 185.898438 C 145.933594 184.46875 145.203125 183.019531 144.5625 181.550781 C 145.488281 179.890625 146.8125 178.316406 148.472656 176.847656 C 149.089844 178.386719 149.777344 179.929688 150.542969 181.453125 Z M 157.046875 177.171875 C 154.726562 178.335938 152.675781 179.652344 150.941406 181.101562 C 150.179688 179.578125 149.5 178.03125 148.890625 176.480469 C 150.710938 174.945312 152.90625 173.53125 155.414062 172.265625 C 155.898438 173.910156 156.441406 175.550781 157.046875 177.171875 Z M 164.417969 168.792969 C 164.777344 170.46875 165.179688 172.160156 165.628906 173.863281 C 162.679688 174.714844 159.960938 175.746094 157.511719 176.9375 C 156.910156 175.3125 156.367188 173.675781 155.882812 172.035156 C 158.4375 170.792969 161.308594 169.699219 164.417969 168.792969 Z M 163.253906 162.535156 C 163.546875 164.414062 163.890625 166.324219 164.300781 168.265625 C 161.195312 169.164062 158.320312 170.25 155.738281 171.511719 C 155.207031 169.640625 154.757812 167.769531 154.386719 165.910156 C 157.046875 164.613281 160.027344 163.472656 163.253906 162.535156 Z M 162.253906 151.492188 C 162.320312 154.800781 162.632812 158.324219 163.175781 162 C 159.953125 162.929688 156.96875 164.054688 154.28125 165.367188 C 153.609375 161.820312 153.25 158.324219 153.210938 154.972656 C 155.917969 153.632812 158.953125 152.46875 162.253906 151.492188 Z M 162.433594 145.238281 C 162.28125 146.964844 162.222656 148.785156 162.234375 150.671875 C 158.980469 151.625 155.949219 152.773438 153.21875 154.089844 C 153.21875 153.820312 153.21875 153.542969 153.222656 153.269531 C 153.289062 150.261719 153.632812 147.441406 154.230469 144.859375 C 156.84375 143.570312 159.753906 142.433594 162.917969 141.480469 C 162.710938 142.675781 162.546875 143.921875 162.433594 145.238281 Z M 173.742188 148.261719 C 169.878906 148.785156 166.191406 149.546875 162.75 150.519531 C 162.738281 148.726562 162.804688 146.972656 162.949219 145.277344 C 163.070312 143.894531 163.25 142.570312 163.464844 141.328125 C 166.78125 140.355469 170.347656 139.59375 174.078125 139.070312 C 173.820312 142.035156 173.722656 145.183594 173.742188 148.261719 Z M 185.96875 138.222656 L 185.96875 147.441406 C 181.921875 147.453125 177.964844 147.71875 174.164062 148.210938 C 174.160156 144.925781 174.277344 141.824219 174.535156 139.003906 C 178.214844 138.515625 182.046875 138.246094 185.96875 138.222656 Z M 185.96875 133.863281 L 185.96875 137.707031 C 182.113281 137.722656 178.289062 137.980469 174.589844 138.460938 C 174.726562 137.097656 174.898438 135.789062 175.117188 134.578125 C 178.59375 134.121094 182.230469 133.878906 185.96875 133.863281 Z M 185.96875 133.339844 C 182.292969 133.355469 178.691406 133.59375 175.210938 134.042969 C 175.382812 133.148438 175.574219 132.296875 175.785156 131.5 C 179.0625 131.070312 182.476562 130.847656 185.96875 130.832031 Z M 186.484375 133.339844 L 186.484375 130.832031 C 189.984375 130.847656 193.402344 131.070312 196.675781 131.496094 C 196.894531 132.289062 197.078125 133.144531 197.25 134.042969 C 193.769531 133.59375 190.164062 133.355469 186.484375 133.339844 Z M 186.484375 137.707031 L 186.484375 133.863281 C 190.230469 133.871094 193.871094 134.117188 197.351562 134.570312 C 197.5625 135.789062 197.734375 137.085938 197.875 138.449219 C 194.226562 137.972656 190.402344 137.722656 186.484375 137.707031 Z M 198.296875 148.210938 C 194.503906 147.710938 190.542969 147.449219 186.484375 147.441406 L 186.484375 138.222656 C 190.429688 138.238281 194.261719 138.503906 197.925781 138.980469 C 198.191406 141.804688 198.308594 144.921875 198.296875 148.210938 Z M 209.519531 145.277344 C 209.664062 146.972656 209.722656 148.726562 209.710938 150.519531 C 206.277344 149.546875 202.589844 148.785156 198.726562 148.261719 C 198.738281 145.171875 198.648438 142.015625 198.382812 139.039062 C 202.128906 139.554688 205.679688 140.300781 208.984375 141.25 C 209.214844 142.523438 209.394531 143.867188 209.519531 145.277344 Z M 210.226562 150.671875 C 210.246094 148.785156 210.179688 146.964844 210.035156 145.238281 C 209.914062 143.902344 209.75 142.632812 209.539062 141.40625 C 212.703125 142.347656 215.613281 143.472656 218.21875 144.761719 C 218.820312 147.375 219.171875 150.21875 219.246094 153.269531 C 219.253906 153.542969 219.246094 153.820312 219.253906 154.089844 C 216.519531 152.769531 213.488281 151.625 210.226562 150.671875 Z M 209.28125 162.042969 C 209.835938 158.347656 210.148438 154.800781 210.214844 151.464844 C 213.496094 152.4375 216.53125 153.609375 219.253906 154.957031 C 219.21875 158.332031 218.847656 161.859375 218.171875 165.433594 C 215.492188 164.117188 212.503906 162.984375 209.28125 162.042969 Z M 208.164062 168.269531 C 208.574219 166.34375 208.910156 164.453125 209.203125 162.59375 C 209.589844 162.707031 209.988281 162.8125 210.378906 162.929688 C 213.171875 163.8125 215.738281 164.832031 218.0625 165.976562 C 217.695312 167.8125 217.253906 169.667969 216.730469 171.511719 C 214.144531 170.257812 211.273438 169.164062 208.164062 168.269531 Z M 206.839844 173.863281 C 207.289062 172.15625 207.691406 170.453125 208.050781 168.773438 C 211.152344 169.667969 214.019531 170.757812 216.585938 172.015625 C 216.101562 173.664062 215.558594 175.3125 214.957031 176.945312 C 212.507812 175.753906 209.785156 174.714844 206.839844 173.863281 Z M 213.199219 181.285156 C 212.152344 183.640625 211 185.917969 209.742188 188.109375 C 207.757812 187.136719 205.546875 186.292969 203.160156 185.601562 C 203.867188 183.6875 204.542969 181.714844 205.171875 179.703125 C 205.726562 177.910156 206.242188 176.132812 206.714844 174.371094 C 209.636719 175.210938 212.34375 176.238281 214.777344 177.429688 C 214.28125 178.726562 213.765625 180.015625 213.199219 181.285156 Z M 215.023438 191.457031 C 213.648438 190.3125 212.027344 189.265625 210.207031 188.339844 C 211.464844 186.144531 212.621094 183.859375 213.675781 181.496094 C 214.238281 180.226562 214.757812 178.949219 215.242188 177.660156 C 217.539062 178.824219 219.570312 180.132812 221.277344 181.578125 C 219.550781 184.972656 217.453125 188.285156 215.023438 191.457031 Z M 216.3125 192.628906 C 216.03125 192.34375 215.726562 192.066406 215.414062 191.792969 C 217.84375 188.628906 219.945312 185.320312 221.679688 181.929688 C 222.023438 182.238281 222.363281 182.542969 222.671875 182.859375 C 223.832031 184.019531 224.742188 185.203125 225.417969 186.421875 C 225.238281 186.730469 225.0625 187.042969 224.875 187.347656 C 223.054688 190.292969 220.9375 193.023438 218.5625 195.523438 C 217.996094 194.527344 217.246094 193.566406 216.3125 192.628906 Z M 207.605469 201.308594 C 207.429688 201.136719 207.234375 200.964844 207.042969 200.796875 C 209.882812 198.277344 212.570312 195.425781 214.996094 192.34375 C 215.03125 192.296875 215.0625 192.242188 215.097656 192.203125 C 215.394531 192.460938 215.679688 192.726562 215.945312 192.992188 C 216.890625 193.9375 217.632812 194.917969 218.1875 195.914062 C 215.507812 198.675781 212.484375 201.144531 209.167969 203.300781 C 208.769531 202.617188 208.25 201.957031 207.605469 201.308594 Z M 197.421875 207.851562 C 197.382812 207.8125 197.351562 207.785156 197.3125 207.753906 C 200.492188 206.011719 203.648438 203.761719 206.652344 201.144531 C 206.859375 201.316406 207.058594 201.492188 207.242188 201.679688 C 207.859375 202.300781 208.355469 202.9375 208.738281 203.585938 C 205.496094 205.65625 201.980469 207.421875 198.222656 208.863281 C 198.011719 208.515625 197.746094 208.175781 197.421875 207.851562 Z M 165.796875 201.128906 C 168.804688 203.757812 171.96875 206.007812 175.152344 207.746094 C 175.113281 207.785156 175.070312 207.8125 175.039062 207.851562 C 174.714844 208.175781 174.449219 208.515625 174.230469 208.863281 C 170.472656 207.421875 166.964844 205.648438 163.722656 203.585938 C 164.226562 202.71875 164.929688 201.898438 165.796875 201.128906 Z M 157.359375 192.195312 C 157.398438 192.242188 157.433594 192.296875 157.472656 192.34375 C 159.894531 195.425781 162.578125 198.277344 165.417969 200.792969 C 165.226562 200.964844 165.035156 201.136719 164.847656 201.308594 C 164.207031 201.949219 163.683594 202.617188 163.289062 203.300781 C 159.980469 201.144531 156.957031 198.667969 154.277344 195.914062 C 154.996094 194.605469 156.042969 193.355469 157.359375 192.195312 Z M 157.046875 191.785156 C 156.738281 192.058594 156.433594 192.34375 156.148438 192.628906 C 155.207031 193.558594 154.46875 194.527344 153.898438 195.511719 C 151.515625 193.015625 149.40625 190.292969 147.59375 187.347656 C 147.402344 187.042969 147.230469 186.730469 147.042969 186.421875 C 147.925781 184.832031 149.1875 183.332031 150.78125 181.929688 C 152.523438 185.316406 154.621094 188.625 157.046875 191.785156 Z M 158.796875 181.496094 C 159.839844 183.851562 161 186.136719 162.253906 188.332031 C 160.4375 189.265625 158.816406 190.3125 157.445312 191.449219 C 155.015625 188.285156 152.914062 184.972656 151.1875 181.578125 C 152.878906 180.15625 154.910156 178.84375 157.226562 177.679688 C 157.714844 178.964844 158.238281 180.234375 158.796875 181.496094 Z M 167.296875 179.703125 C 167.925781 181.714844 168.601562 183.6875 169.300781 185.601562 C 166.914062 186.289062 164.703125 187.136719 162.71875 188.109375 C 161.46875 185.917969 160.308594 183.640625 159.265625 181.285156 C 158.703125 180.023438 158.1875 178.738281 157.695312 177.441406 C 160.113281 176.269531 162.816406 175.238281 165.761719 174.390625 C 166.230469 176.144531 166.734375 177.925781 167.296875 179.703125 Z M 175.496094 172.359375 C 176.019531 176.363281 176.628906 180.265625 177.300781 183.925781 C 174.6875 184.285156 172.195312 184.792969 169.859375 185.441406 C 168.542969 181.894531 167.332031 178.117188 166.296875 174.238281 C 169.164062 173.433594 172.246094 172.804688 175.496094 172.359375 Z M 174.820312 166.628906 C 175 168.371094 175.203125 170.117188 175.421875 171.835938 C 172.175781 172.273438 169.0625 172.902344 166.160156 173.714844 C 165.714844 172.042969 165.3125 170.347656 164.949219 168.648438 C 168.019531 167.789062 171.332031 167.101562 174.820312 166.628906 Z M 174.238281 160.238281 C 174.332031 161.449219 174.421875 162.5625 174.515625 163.539062 C 174.589844 164.394531 174.675781 165.253906 174.769531 166.105469 C 171.273438 166.570312 167.9375 167.25 164.828125 168.117188 C 164.425781 166.207031 164.070312 164.292969 163.777344 162.382812 C 167.03125 161.460938 170.546875 160.742188 174.238281 160.238281 Z M 174.207031 159.722656 C 170.511719 160.210938 166.988281 160.925781 163.699219 161.851562 C 163.15625 158.28125 162.824219 154.738281 162.765625 151.339844 C 166.171875 150.359375 169.859375 149.585938 173.75 149.054688 C 173.78125 152.898438 173.980469 156.617188 174.207031 159.722656 Z M 185.96875 158.933594 C 182.078125 158.941406 178.273438 159.191406 174.621094 159.664062 C 174.359375 156.003906 174.199219 152.410156 174.171875 148.996094 C 177.9375 148.492188 181.894531 148.234375 185.96875 148.222656 Z M 197.839844 159.683594 C 194.195312 159.207031 190.382812 158.949219 186.484375 158.933594 L 186.484375 148.222656 C 190.542969 148.230469 194.503906 148.492188 198.296875 148.988281 C 198.269531 152.410156 198.113281 156.011719 197.839844 159.683594 Z M 198.265625 159.734375 C 198.488281 156.625 198.679688 152.90625 198.71875 149.042969 C 202.585938 149.566406 206.269531 150.332031 209.703125 151.320312 C 209.636719 154.734375 209.308594 158.300781 208.765625 161.890625 C 205.484375 160.960938 201.957031 160.230469 198.265625 159.734375 Z M 197.703125 166.105469 C 197.789062 165.253906 197.875 164.394531 197.953125 163.539062 C 198.039062 162.566406 198.132812 161.46875 198.222656 160.265625 C 201.871094 160.761719 205.382812 161.496094 208.683594 162.441406 C 208.386719 164.332031 208.035156 166.226562 207.632812 168.117188 C 204.523438 167.25 201.1875 166.570312 197.703125 166.105469 Z M 197.039062 171.835938 C 197.257812 170.109375 197.464844 168.371094 197.648438 166.617188 C 201.117188 167.085938 204.4375 167.753906 207.527344 168.621094 C 207.15625 170.335938 206.753906 172.035156 206.308594 173.714844 C 203.398438 172.902344 200.296875 172.273438 197.039062 171.835938 Z M 195.160156 183.925781 C 195.835938 180.261719 196.449219 176.355469 196.972656 172.351562 C 200.203125 172.789062 203.292969 173.410156 206.175781 174.21875 C 205.136719 178.101562 203.921875 181.894531 202.609375 185.449219 C 200.273438 184.792969 197.773438 184.285156 195.160156 183.925781 Z M 197.953125 196.226562 C 196.304688 195.769531 194.546875 195.398438 192.707031 195.140625 C 193.539062 191.992188 194.339844 188.359375 195.074219 184.433594 C 197.65625 184.785156 200.125 185.289062 202.433594 185.929688 C 201.023438 189.703125 199.496094 193.1875 197.953125 196.226562 Z M 202.867188 198.074219 C 201.539062 197.425781 200.078125 196.863281 198.496094 196.386719 C 200.058594 193.316406 201.578125 189.828125 202.980469 186.082031 C 205.34375 186.765625 207.535156 187.597656 209.492188 188.558594 C 207.519531 191.957031 205.296875 195.140625 202.867188 198.074219 Z M 203.339844 198.3125 C 205.761719 195.378906 207.984375 192.191406 209.957031 188.789062 C 211.753906 189.703125 213.351562 190.742188 214.707031 191.867188 C 214.667969 191.917969 214.625 191.964844 214.585938 192.019531 C 212.164062 195.101562 209.480469 197.945312 206.652344 200.453125 C 205.699219 199.667969 204.589844 198.945312 203.339844 198.3125 Z M 198.257812 196.855469 C 199.800781 197.3125 201.234375 197.847656 202.523438 198.46875 C 200.164062 201.273438 197.601562 203.84375 194.875 206.113281 C 194.253906 205.8125 193.574219 205.542969 192.84375 205.316406 C 194.613281 203.238281 196.457031 200.328125 198.257812 196.855469 Z M 192.574219 195.652344 C 194.375 195.894531 196.101562 196.253906 197.714844 196.703125 C 195.882812 200.257812 194.027344 203.160156 192.300781 205.160156 C 191.394531 204.90625 190.429688 204.710938 189.425781 204.578125 C 190.460938 202.570312 191.535156 199.480469 192.574219 195.652344 Z M 186.484375 195.226562 C 188.410156 195.234375 190.289062 195.359375 192.097656 195.585938 C 191.046875 199.421875 189.945312 202.511719 188.867188 204.511719 C 188.101562 204.425781 187.300781 204.378906 186.484375 204.371094 Z M 183.59375 204.511719 C 182.515625 202.511719 181.417969 199.421875 180.371094 195.585938 C 182.160156 195.351562 184.039062 195.234375 185.96875 195.222656 L 185.96875 204.371094 C 185.164062 204.378906 184.363281 204.425781 183.59375 204.511719 Z M 180.167969 205.160156 C 178.441406 203.160156 176.585938 200.257812 174.753906 196.703125 C 176.363281 196.257812 178.082031 195.902344 179.894531 195.652344 C 180.929688 199.488281 182 202.570312 183.046875 204.578125 C 182.03125 204.703125 181.066406 204.902344 180.167969 205.160156 Z M 177.59375 206.113281 C 174.867188 203.84375 172.304688 201.273438 169.9375 198.476562 C 171.234375 197.859375 172.664062 197.316406 174.210938 196.855469 C 176.011719 200.328125 177.859375 203.238281 179.617188 205.3125 C 178.890625 205.542969 178.207031 205.808594 177.59375 206.113281 Z M 169.125 198.304688 C 167.878906 198.945312 166.761719 199.667969 165.808594 200.449219 C 162.984375 197.941406 160.296875 195.101562 157.882812 192.019531 C 157.835938 191.964844 157.796875 191.914062 157.757812 191.859375 C 159.097656 190.746094 160.699219 189.722656 162.515625 188.800781 C 164.484375 192.195312 166.703125 195.378906 169.125 198.304688 Z M 173.96875 196.386719 C 172.390625 196.855469 170.921875 197.417969 169.601562 198.066406 C 167.171875 195.140625 164.957031 191.964844 162.984375 188.570312 C 164.929688 187.617188 167.117188 186.792969 169.488281 186.101562 C 170.890625 189.835938 172.414062 193.320312 173.96875 196.386719 Z M 179.757812 195.140625 C 177.917969 195.398438 176.164062 195.769531 174.515625 196.226562 C 172.976562 193.1875 171.453125 189.703125 170.042969 185.9375 C 172.339844 185.300781 174.800781 184.800781 177.394531 184.441406 C 178.128906 188.359375 178.929688 191.992188 179.757812 195.140625 Z M 185.96875 183.851562 L 185.96875 194.703125 C 184 194.71875 182.078125 194.851562 180.234375 195.082031 C 179.394531 191.933594 178.578125 188.300781 177.839844 184.382812 C 180.4375 184.046875 183.164062 183.867188 185.96875 183.851562 Z M 185.96875 171.644531 L 185.96875 183.335938 C 183.144531 183.34375 180.386719 183.527344 177.746094 183.867188 C 177.058594 180.199219 176.441406 176.289062 175.917969 172.300781 C 179.136719 171.882812 182.503906 171.660156 185.96875 171.644531 Z M 185.96875 165.867188 L 185.96875 171.128906 C 182.496094 171.136719 179.109375 171.359375 175.851562 171.777344 C 175.628906 170.058594 175.421875 168.316406 175.238281 166.5625 C 178.671875 166.128906 182.265625 165.882812 185.96875 165.867188 Z M 185.96875 165.351562 C 182.269531 165.359375 178.652344 165.597656 175.183594 166.046875 C 174.984375 164.089844 174.808594 162.125 174.660156 160.183594 C 178.273438 159.714844 182.066406 159.464844 185.96875 159.449219 Z M 186.484375 165.351562 L 186.484375 159.457031 C 190.335938 159.46875 194.136719 159.734375 197.800781 160.210938 C 197.660156 162.144531 197.484375 164.097656 197.277344 166.046875 C 193.8125 165.597656 190.191406 165.359375 186.484375 165.351562 Z M 186.484375 171.128906 L 186.484375 165.867188 C 190.179688 165.882812 193.777344 166.113281 197.230469 166.558594 C 197.046875 168.3125 196.839844 170.058594 196.617188 171.785156 C 193.359375 171.359375 189.964844 171.136719 186.484375 171.128906 Z M 186.484375 183.335938 L 186.484375 171.644531 C 189.941406 171.652344 193.316406 171.878906 196.550781 172.292969 C 196.027344 176.289062 195.40625 180.199219 194.722656 183.875 C 192.078125 183.527344 189.3125 183.34375 186.484375 183.335938 Z M 186.484375 183.851562 C 189.285156 183.867188 192.011719 184.039062 194.632812 184.375 C 193.890625 188.300781 193.078125 191.933594 192.230469 195.089844 C 190.382812 194.851562 188.457031 194.71875 186.484375 194.703125 Z M 175.554688 207.382812 C 172.378906 205.65625 169.203125 203.417969 166.191406 200.785156 C 167.117188 200.039062 168.21875 199.34375 169.460938 198.714844 C 171.824219 201.519531 174.378906 204.082031 177.089844 206.371094 C 176.519531 206.675781 176.003906 207.011719 175.554688 207.382812 Z M 195.371094 206.371094 C 198.089844 204.085938 200.644531 201.519531 203 198.714844 C 204.230469 199.34375 205.324219 200.039062 206.257812 200.804688 C 203.246094 203.425781 200.082031 205.660156 196.90625 207.390625 C 196.457031 207.019531 195.949219 206.679688 195.371094 206.371094 Z M 191.621094 217.796875 C 191.097656 217.679688 190.59375 217.40625 190.113281 216.996094 C 190.964844 216.859375 191.773438 216.671875 192.535156 216.453125 C 193.527344 216.851562 194.5 217.09375 195.542969 217.1875 C 194.253906 217.445312 192.9375 217.644531 191.621094 217.796875 Z M 196.867188 213.265625 C 194.894531 215.242188 190.714844 216.519531 186.226562 216.519531 C 181.742188 216.519531 177.566406 215.242188 175.589844 213.265625 C 174.820312 212.496094 174.429688 211.675781 174.429688 210.835938 C 174.429688 207.691406 179.722656 205.140625 186.226562 205.140625 C 190.714844 205.140625 194.894531 206.421875 196.867188 208.402344 C 197.640625 209.167969 198.03125 209.988281 198.03125 210.835938 C 198.03125 211.675781 197.640625 212.496094 196.867188 213.265625 Z M 145.601562 191.574219 C 145.628906 189.988281 146.03125 188.445312 146.765625 186.957031 C 146.890625 187.179688 147.015625 187.398438 147.15625 187.625 C 149.015625 190.640625 151.191406 193.441406 153.640625 196 C 153.050781 197.167969 152.714844 198.363281 152.628906 199.585938 C 150.09375 197.316406 147.691406 194.664062 145.601562 191.574219 Z M 153.117188 200.023438 C 153.152344 198.773438 153.460938 197.5625 154.023438 196.398438 C 156.71875 199.136719 159.734375 201.605469 163.042969 203.757812 C 162.625 204.589844 162.394531 205.445312 162.335938 206.316406 C 159.277344 204.703125 156.117188 202.632812 153.117188 200.023438 Z M 165.21875 211.78125 C 164.691406 211.257812 164.261719 210.71875 163.910156 210.167969 C 167.4375 211.445312 170.96875 212.230469 174.121094 212.589844 C 174.296875 212.925781 174.523438 213.246094 174.800781 213.5625 C 171.941406 213.6875 168.832031 213.246094 165.820312 212.34375 C 165.617188 212.160156 165.40625 211.972656 165.21875 211.78125 Z M 172.828125 216.167969 C 172.328125 215.996094 171.828125 215.8125 171.355469 215.621094 C 173.015625 215.804688 174.726562 215.699219 177.296875 215.402344 C 177.863281 215.699219 178.480469 215.964844 179.148438 216.1875 C 177.738281 216.664062 176.328125 216.8125 174.609375 216.652344 C 174.601562 216.652344 174.589844 216.652344 174.589844 216.652344 C 174 216.507812 173.410156 216.339844 172.828125 216.167969 Z M 199.625 216.167969 C 199.042969 216.339844 198.460938 216.5 197.875 216.652344 C 197.867188 216.652344 197.867188 216.652344 197.859375 216.652344 C 196.140625 216.8125 194.742188 216.664062 193.339844 216.195312 C 194.007812 215.964844 194.632812 215.699219 195.195312 215.410156 C 197.742188 215.699219 199.449219 215.804688 201.101562 215.621094 C 200.625 215.8125 200.128906 215.996094 199.625 216.167969 Z M 206.632812 212.34375 C 203.625 213.246094 200.519531 213.6875 197.675781 213.5625 C 197.945312 213.246094 198.171875 212.925781 198.355469 212.589844 C 201.492188 212.230469 205.027344 211.453125 208.554688 210.175781 C 208.195312 210.71875 207.765625 211.257812 207.242188 211.78125 C 207.050781 211.972656 206.839844 212.160156 206.632812 212.34375 Z M 210.121094 206.324219 C 210.066406 205.445312 209.828125 204.597656 209.414062 203.757812 C 212.726562 201.605469 215.746094 199.144531 218.4375 196.398438 C 219.015625 197.578125 219.3125 198.792969 219.339844 200.03125 C 216.339844 202.632812 213.179688 204.710938 210.121094 206.324219 Z M 219.835938 199.59375 C 219.75 198.371094 219.410156 197.171875 218.816406 196.007812 C 221.277344 193.441406 223.453125 190.640625 225.3125 187.625 C 225.445312 187.398438 225.570312 187.179688 225.703125 186.957031 C 226.445312 188.457031 226.835938 190.007812 226.855469 191.589844 C 224.765625 194.671875 222.367188 197.324219 219.835938 199.59375 Z M 227.335938 190.839844 C 227.210938 189.332031 226.769531 187.863281 226.019531 186.425781 C 226.828125 185.019531 227.570312 183.589844 228.21875 182.132812 C 229.03125 183.765625 229.449219 185.433594 229.46875 187.148438 C 228.804688 188.4375 228.09375 189.667969 227.335938 190.839844 Z M 225.597656 170.175781 C 223.640625 168.515625 221.296875 167.007812 218.65625 165.671875 C 219.339844 162.109375 219.714844 158.589844 219.761719 155.210938 C 222.507812 156.605469 224.910156 158.195312 226.90625 159.933594 C 226.90625 163.078125 226.523438 166.3125 225.738281 169.621094 C 225.695312 169.804688 225.644531 169.992188 225.597656 170.175781 Z M 202.585938 128.214844 C 203.992188 129.476562 205.191406 131.03125 206.191406 132.863281 C 203.320312 132.070312 200.25 131.457031 197.046875 131.027344 C 196.578125 129.339844 195.988281 127.863281 195.261719 126.691406 C 197.820312 127.046875 200.273438 127.558594 202.585938 128.214844 Z M 169.859375 128.234375 C 172.167969 127.578125 174.636719 127.0625 177.203125 126.699219 C 176.476562 127.871094 175.894531 129.34375 175.421875 131.027344 C 172.21875 131.460938 169.148438 132.078125 166.277344 132.863281 C 167.265625 131.050781 168.457031 129.496094 169.859375 128.234375 Z M 146.726562 169.621094 C 145.945312 166.3125 145.5625 163.070312 145.554688 159.925781 C 147.535156 158.214844 149.933594 156.632812 152.699219 155.230469 C 152.753906 158.585938 153.125 162.0625 153.800781 165.597656 C 151.152344 166.925781 148.808594 168.421875 146.84375 170.078125 C 146.804688 169.925781 146.765625 169.773438 146.726562 169.621094 Z M 140.890625 181.839844 C 140.890625 180.023438 141.332031 178.25 142.175781 176.554688 C 142.671875 178.222656 143.277344 179.875 143.980469 181.503906 C 143.160156 183.019531 142.675781 184.582031 142.523438 186.167969 C 141.929688 184.925781 141.386719 183.628906 140.902344 182.273438 C 140.898438 182.132812 140.890625 181.988281 140.890625 181.839844 Z M 143.339844 189.945312 C 143.199219 189.417969 143.105469 188.886719 143.054688 188.351562 C 143.6875 189.523438 144.363281 190.648438 145.078125 191.714844 C 145.078125 191.71875 145.078125 191.726562 145.078125 191.734375 C 145.078125 192.496094 145.164062 193.25 145.332031 193.996094 C 144.59375 192.679688 143.933594 191.332031 143.339844 189.945312 Z M 148.671875 199.125 C 148.636719 199.089844 148.605469 199.066406 148.566406 199.050781 C 147.863281 198.097656 147.210938 197.121094 146.585938 196.121094 C 146.042969 194.9375 145.71875 193.726562 145.628906 192.5 C 147.71875 195.480469 150.09375 198.046875 152.59375 200.242188 C 152.601562 201.453125 152.867188 202.652344 153.375 203.816406 C 151.640625 202.441406 150.042969 200.882812 148.671875 199.125 Z M 156.824219 207.699219 C 156.140625 207.050781 155.546875 206.382812 155.050781 205.695312 C 157.597656 207.421875 160.351562 208.804688 163.136719 209.875 C 163.519531 210.597656 164.035156 211.292969 164.691406 211.972656 C 162.558594 211.238281 160.515625 210.28125 158.667969 209.128906 C 158.046875 208.664062 157.433594 208.195312 156.824219 207.699219 Z M 215.640625 207.699219 C 215.015625 208.203125 214.382812 208.691406 213.742188 209.164062 C 211.902344 210.3125 209.855469 211.257812 207.738281 211.988281 C 208.386719 211.320312 208.910156 210.609375 209.308594 209.882812 C 212.09375 208.816406 214.84375 207.433594 217.394531 205.707031 C 216.902344 206.390625 216.3125 207.058594 215.640625 207.699219 Z M 223.890625 199.050781 C 223.855469 199.066406 223.824219 199.089844 223.796875 199.125 C 222.421875 200.890625 220.8125 202.445312 219.078125 203.828125 C 219.589844 202.65625 219.855469 201.460938 219.859375 200.25 C 222.363281 198.050781 224.738281 195.484375 226.828125 192.519531 C 226.734375 193.746094 226.40625 194.949219 225.867188 196.132812 C 225.246094 197.125 224.589844 198.097656 223.890625 199.050781 Z M 227.125 193.996094 C 227.292969 193.253906 227.378906 192.496094 227.378906 191.734375 C 228.09375 190.660156 228.765625 189.550781 229.402344 188.371094 C 229.347656 188.902344 229.257812 189.425781 229.125 189.953125 C 228.523438 191.332031 227.859375 192.6875 227.125 193.996094 Z M 228.886719 152.296875 C 228.019531 151.171875 226.972656 150.09375 225.789062 149.0625 C 225.378906 147.785156 224.894531 146.527344 224.339844 145.304688 C 225.195312 146.125 225.953125 146.972656 226.601562 147.859375 C 227.449219 149.292969 228.203125 150.78125 228.886719 152.296875 Z M 214.566406 135.914062 C 212.226562 134.808594 209.644531 133.851562 206.878906 133.058594 C 205.980469 131.308594 204.90625 129.800781 203.65625 128.519531 C 205.496094 129.085938 207.234375 129.753906 208.851562 130.503906 C 209.480469 130.851562 210.101562 131.210938 210.714844 131.59375 C 212.171875 132.785156 213.460938 134.234375 214.566406 135.914062 Z M 193.300781 125.203125 C 193.597656 125.441406 193.875 125.710938 194.148438 126.03125 C 191.667969 125.730469 189.105469 125.574219 186.484375 125.558594 L 186.484375 124.679688 C 188.789062 124.6875 191.066406 124.867188 193.300781 125.203125 Z M 185.96875 124.671875 L 185.96875 125.558594 C 183.363281 125.574219 180.796875 125.738281 178.3125 126.035156 C 178.578125 125.71875 178.863281 125.441406 179.160156 125.203125 C 181.382812 124.867188 183.660156 124.6875 185.96875 124.671875 Z M 145.890625 147.832031 C 146.535156 146.964844 147.277344 146.125 148.117188 145.324219 C 147.554688 146.5625 147.070312 147.832031 146.660156 149.128906 C 145.457031 150.167969 144.417969 151.265625 143.550781 152.390625 C 144.25 150.824219 145.03125 149.300781 145.890625 147.832031 Z M 139.519531 170.507812 C 139.605469 169.203125 139.910156 167.925781 140.425781 166.683594 C 140.597656 169.746094 141.121094 172.804688 141.960938 175.8125 C 141.101562 177.394531 140.59375 179.023438 140.433594 180.695312 C 139.824219 177.667969 139.507812 174.550781 139.507812 171.394531 C 139.507812 171.097656 139.515625 170.796875 139.519531 170.507812 Z M 138.714844 171.28125 C 138.714844 171.316406 138.71875 171.339844 138.734375 171.375 C 138.734375 171.378906 138.726562 171.386719 138.726562 171.394531 C 138.726562 184.078125 143.667969 196.007812 152.640625 204.980469 C 161.613281 213.953125 173.539062 218.890625 186.226562 218.890625 C 212.402344 218.890625 233.703125 197.601562 233.730469 171.433594 C 233.75 171.386719 233.761719 171.335938 233.761719 171.28125 C 233.761719 170.863281 233.734375 170.453125 233.695312 170.042969 C 233.359375 157.863281 228.46875 146.457031 219.8125 137.808594 C 210.84375 128.835938 198.917969 123.894531 186.226562 123.894531 C 173.542969 123.894531 161.613281 128.835938 152.640625 137.808594 C 143.933594 146.515625 139.039062 158 138.757812 170.277344 C 138.726562 170.613281 138.714844 170.945312 138.714844 171.28125 "/><g clip-rule="nonzero" clip-path="url(#f6d8a5fb34)"><path style=" stroke:none;fill-rule:nonzero;fill:#000000;fill-opacity:1;" d="M 236.515625 180.644531 C 235.792969 180.703125 235.332031 181.1875 235.476562 181.714844 C 235.621094 182.253906 236.324219 182.636719 237.042969 182.578125 C 242.085938 182.152344 246.136719 181.390625 248.921875 180.308594 C 251.878906 179.15625 253.5 177.621094 253.5 175.707031 C 253.5 171.738281 245.929688 167.132812 233.703125 162.90625 C 221.898438 158.820312 205.613281 154.957031 187.652344 152.292969 C 178.574219 150.949219 169.945312 150.035156 162.101562 149.53125 C 150.75 148.804688 141.023438 148.949219 134.003906 149.902344 C 126.550781 150.914062 122.007812 152.90625 121.535156 155.832031 C 121.511719 156.003906 121.496094 156.175781 121.496094 156.339844 C 121.496094 157.988281 122.726562 159.707031 125.003906 161.449219 C 127.195312 163.109375 130.382812 164.824219 134.394531 166.515625 C 135.054688 166.796875 135.855469 166.65625 136.179688 166.191406 C 136.503906 165.738281 136.230469 165.140625 135.570312 164.855469 C 131.804688 163.269531 128.835938 161.679688 126.855469 160.171875 C 125.109375 158.84375 124.164062 157.605469 124.164062 156.511719 C 124.164062 156.40625 124.175781 156.308594 124.191406 156.222656 C 124.519531 154.164062 128.351562 152.675781 134.695312 151.816406 C 141.472656 150.890625 150.960938 150.761719 162.101562 151.472656 C 169.859375 151.96875 178.394531 152.875 187.347656 154.203125 C 205.09375 156.832031 221.144531 160.636719 232.742188 164.644531 C 243.914062 168.507812 250.828125 172.445312 250.828125 175.535156 C 250.828125 176.71875 249.65625 177.738281 247.511719 178.574219 C 244.992188 179.550781 241.238281 180.246094 236.515625 180.644531 "/></g><g clip-rule="nonzero" clip-path="url(#8fe67e2e30)"><path style=" stroke:none;fill-rule:evenodd;fill:#000000;fill-opacity:1;" d="M 235.277344 122.808594 L 235.34375 122.808594 C 235.792969 128.730469 240.519531 133.460938 246.441406 133.902344 L 246.441406 133.976562 C 240.519531 134.417969 235.792969 139.152344 235.34375 145.074219 L 235.277344 145.074219 C 234.828125 139.152344 230.101562 134.417969 224.179688 133.976562 L 224.179688 133.902344 C 230.101562 133.460938 234.828125 128.730469 235.277344 122.808594 "/></g><path style=" stroke:none;fill-rule:evenodd;fill:#000000;fill-opacity:1;" d="M 246.617188 143.238281 L 246.652344 143.238281 C 246.835938 145.761719 248.847656 147.773438 251.363281 147.957031 L 251.363281 147.992188 C 248.847656 148.175781 246.835938 150.1875 246.652344 152.703125 L 246.617188 152.703125 C 246.433594 150.1875 244.421875 148.175781 241.902344 147.992188 L 241.902344 147.957031 C 244.421875 147.773438 246.433594 145.761719 246.617188 143.238281 "/><g clip-rule="nonzero" clip-path="url(#fd53cffa8f)"><path style=" stroke:none;fill-rule:evenodd;fill:#000000;fill-opacity:1;" d="M 126.355469 212.222656 C 142.578125 219.5 160.425781 223.773438 176.132812 225.398438 C 198.175781 227.675781 221.730469 225.730469 241.109375 217.53125 C 255.257812 211.53125 269.113281 201.117188 272.3125 185.753906 C 272.761719 183.628906 272.976562 181.441406 272.976562 179.226562 C 272.976562 165.089844 264.34375 152.757812 252.816406 142.960938 C 259.519531 151.363281 263.90625 161.023438 263.90625 171.550781 C 263.90625 174.019531 263.652344 176.453125 263.164062 178.832031 C 259.75 195.230469 245.445312 206.363281 230.273438 212.796875 C 210.699219 221.085938 187.007812 223.09375 164.722656 220.78125 C 152.277344 219.5 139.058594 216.699219 126.355469 212.222656 "/></g><g clip-rule="nonzero" clip-path="url(#fd63d1b806)"><path style=" stroke:none;fill-rule:evenodd;fill:#000000;fill-opacity:1;" d="M 102.652344 193.414062 L 102.816406 193.339844 L 102.972656 193.25 C 112.976562 211.402344 116.738281 211.058594 133.714844 201.691406 L 133.878906 201.988281 C 116.902344 211.363281 114.601562 214.34375 124.617188 232.496094 L 124.308594 232.675781 C 114.292969 214.523438 110.53125 214.871094 93.554688 224.234375 L 93.390625 223.925781 C 110.367188 214.5625 112.667969 211.582031 102.652344 193.414062 "/></g><path style=" stroke:none;fill-rule:evenodd;fill:#000000;fill-opacity:1;" d="M 128.058594 221.507812 C 145.890625 230.15625 165.617188 235.503906 183.066406 237.832031 C 207.542969 241.109375 233.84375 239.714844 255.707031 231.21875 C 271.671875 225 287.445312 213.859375 291.515625 196.855469 C 292.078125 194.503906 292.398438 192.070312 292.472656 189.601562 C 292.933594 173.867188 283.722656 159.832031 271.210938 148.550781 C 278.402344 158.132812 282.96875 169.03125 282.609375 180.761719 C 282.535156 183.5 282.175781 186.214844 281.546875 188.835938 C 277.210938 206.988281 260.914062 218.925781 243.796875 225.589844 C 221.714844 234.171875 195.261719 235.632812 170.519531 232.320312 C 156.6875 230.476562 142.054688 226.921875 128.058594 221.507812 "/><g clip-rule="nonzero" clip-path="url(#34d7e18d08)"><g clip-rule="nonzero" clip-path="url(#13188fcfd3)"><g clip-rule="nonzero" clip-path="url(#93dfbbd61c)"><path style=" stroke:none;fill-rule:evenodd;fill:#000000;fill-opacity:1;" d="M 244.886719 127.710938 C 228.101562 121.84375 209.957031 119.109375 194.164062 118.832031 C 172.007812 118.445312 148.707031 122.394531 130.097656 132.222656 C 116.511719 139.40625 103.597656 150.964844 101.722656 166.546875 C 101.457031 168.703125 101.429688 170.898438 101.617188 173.105469 C 102.824219 187.1875 112.480469 198.738281 124.804688 207.519531 C 117.40625 199.714844 112.210938 190.46875 111.308594 179.976562 C 111.101562 177.519531 111.148438 175.074219 111.429688 172.660156 C 113.429688 156.03125 126.730469 143.71875 141.296875 136.011719 C 160.09375 126.082031 183.527344 122.054688 205.929688 122.460938 C 218.441406 122.671875 231.84375 124.335938 244.886719 127.710938 "/></g></g></g><g clip-rule="nonzero" clip-path="url(#4b401be040)"><g clip-rule="nonzero" clip-path="url(#25fe07b808)"><g clip-rule="nonzero" clip-path="url(#0fb1912429)"><path style=" stroke:none;fill-rule:evenodd;fill:#000000;fill-opacity:1;" d="M 270.109375 144.425781 L 269.949219 144.515625 L 269.804688 144.617188 C 258.289062 127.382812 254.570312 128.050781 238.453125 138.828125 L 238.265625 138.550781 C 254.378906 127.757812 256.417969 124.589844 244.886719 107.359375 L 245.175781 107.15625 C 256.707031 124.386719 260.425781 123.722656 276.539062 112.941406 L 276.734375 113.234375 C 260.617188 124.011719 258.578125 127.179688 270.109375 144.425781 "/></g></g></g><g clip-rule="nonzero" clip-path="url(#9eb12b6367)"><g clip-rule="nonzero" clip-path="url(#9f85a25757)"><g clip-rule="nonzero" clip-path="url(#279948cef0)"><path style=" stroke:none;fill-rule:evenodd;fill:#000000;fill-opacity:1;" d="M 242.398438 118.601562 C 223.890625 111.507812 203.777344 107.867188 186.195312 107.035156 C 161.53125 105.863281 135.445312 109.5 114.386719 119.828125 C 99.007812 127.386719 84.246094 139.835938 81.644531 157.125 C 81.285156 159.515625 81.171875 161.964844 81.308594 164.433594 C 82.191406 180.148438 92.566406 193.34375 105.996094 203.519531 C 98.015625 194.585938 92.535156 184.117188 91.890625 172.398438 C 91.730469 169.664062 91.855469 166.929688 92.257812 164.265625 C 95.027344 145.808594 110.246094 132.523438 126.734375 124.421875 C 148 113.980469 174.234375 110.269531 199.167969 111.457031 C 213.105469 112.113281 227.988281 114.40625 242.398438 118.601562 "/></g></g></g><g style="fill:#000000;fill-opacity:1;"><g transform="translate(146.646301, 261.419638)"><path style="stroke:none" d="M 5.640625 -3.125 L 4.75 -4.984375 L 4.75 0 L 1 0 L 1 -10.390625 L 9.046875 -10.390625 C 10.242188 -10.390625 11.191406 -10.144531 11.890625 -9.65625 C 12.585938 -9.164062 12.9375 -8.40625 12.9375 -7.375 L 12.9375 -5.671875 C 12.9375 -5.453125 12.882812 -5.238281 12.78125 -5.03125 C 12.675781 -4.820312 12.523438 -4.648438 12.328125 -4.515625 L 10.5 -3.359375 C 10.394531 -3.273438 10.269531 -3.210938 10.125 -3.171875 C 9.988281 -3.140625 9.847656 -3.125 9.703125 -3.125 Z M 4.75 -7.875 L 4.75 -5.625 L 8.375 -5.625 C 8.59375 -5.625 8.78125 -5.703125 8.9375 -5.859375 C 9.09375 -6.015625 9.171875 -6.195312 9.171875 -6.40625 L 9.171875 -7.09375 C 9.171875 -7.320312 9.09375 -7.507812 8.9375 -7.65625 C 8.78125 -7.800781 8.597656 -7.875 8.390625 -7.875 Z M 4.75 -7.875 "/></g></g><g style="fill:#000000;fill-opacity:1;"><g transform="translate(160.474648, 261.419638)"><path style="stroke:none" d="M 4.1875 0 C 4.019531 0 3.867188 -0.015625 3.734375 -0.046875 C 3.609375 -0.0859375 3.484375 -0.148438 3.359375 -0.234375 L 1.546875 -1.390625 C 1.359375 -1.523438 1.207031 -1.695312 1.09375 -1.90625 C 0.988281 -2.113281 0.9375 -2.328125 0.9375 -2.546875 L 0.9375 -7.375 C 0.9375 -8.40625 1.285156 -9.164062 1.984375 -9.65625 C 2.679688 -10.144531 3.625 -10.390625 4.8125 -10.390625 L 9.9375 -10.390625 C 10.269531 -10.390625 10.535156 -10.304688 10.734375 -10.140625 L 12.578125 -9.03125 C 12.984375 -8.726562 13.1875 -8.328125 13.1875 -7.828125 L 13.1875 -3.015625 C 13.1875 -1.984375 12.835938 -1.222656 12.140625 -0.734375 C 11.453125 -0.242188 10.5 0 9.28125 0 Z M 4.6875 -3.28125 C 4.6875 -3.070312 4.765625 -2.890625 4.921875 -2.734375 C 5.078125 -2.578125 5.265625 -2.5 5.484375 -2.5 L 8.65625 -2.5 C 8.875 -2.5 9.054688 -2.578125 9.203125 -2.734375 C 9.359375 -2.890625 9.4375 -3.070312 9.4375 -3.28125 L 9.4375 -7.09375 C 9.4375 -7.320312 9.359375 -7.507812 9.203125 -7.65625 C 9.054688 -7.800781 8.867188 -7.875 8.640625 -7.875 L 5.46875 -7.875 C 5.257812 -7.875 5.078125 -7.800781 4.921875 -7.65625 C 4.765625 -7.507812 4.6875 -7.320312 4.6875 -7.09375 Z M 4.6875 -3.28125 "/></g></g><g style="fill:#000000;fill-opacity:1;"><g transform="translate(174.606041, 261.419638)"><path style="stroke:none" d="M 12.515625 -6.46875 L 12.515625 -3.03125 C 12.515625 -2.800781 12.460938 -2.585938 12.359375 -2.390625 C 12.253906 -2.203125 12.113281 -2.035156 11.9375 -1.890625 L 9.59375 -0.234375 C 9.476562 -0.148438 9.351562 -0.0859375 9.21875 -0.046875 C 9.09375 -0.015625 8.957031 0 8.8125 0 L 0.9375 0 L 0.9375 -2.5 L 8 -2.5 C 8.21875 -2.5 8.398438 -2.578125 8.546875 -2.734375 C 8.703125 -2.890625 8.78125 -3.070312 8.78125 -3.28125 L 8.78125 -3.953125 L 0.9375 -3.953125 L 0.9375 -7.359375 C 0.9375 -7.847656 1.144531 -8.238281 1.5625 -8.53125 L 3.890625 -10.140625 C 4.003906 -10.234375 4.128906 -10.296875 4.265625 -10.328125 C 4.398438 -10.367188 4.535156 -10.390625 4.671875 -10.390625 L 12.515625 -10.390625 L 12.515625 -7.875 L 5.484375 -7.875 C 5.265625 -7.875 5.078125 -7.800781 4.921875 -7.65625 C 4.765625 -7.507812 4.6875 -7.320312 4.6875 -7.09375 L 4.6875 -6.46875 Z M 12.515625 -6.46875 "/></g></g><g style="fill:#000000;fill-opacity:1;"><g transform="translate(188.067552, 261.419638)"><path style="stroke:none" d="M 0.671875 -7.875 L 0.671875 -10.390625 L 13 -10.390625 L 13 -7.875 L 8.703125 -7.875 L 8.703125 -1.328125 C 8.703125 -1.046875 8.597656 -0.84375 8.390625 -0.71875 L 7.46875 -0.125 C 7.351562 -0.0390625 7.207031 0 7.03125 0 L 4.96875 0 L 4.96875 -7.875 Z M 0.671875 -7.875 "/></g></g><g style="fill:#000000;fill-opacity:1;"><g transform="translate(201.736404, 261.419638)"><path style="stroke:none" d="M 4.75 -7.875 L 4.75 -6.359375 L 11.484375 -6.359375 L 11.484375 -4.015625 L 4.75 -4.015625 L 4.75 -3.28125 C 4.75 -3.070312 4.828125 -2.890625 4.984375 -2.734375 C 5.148438 -2.578125 5.34375 -2.5 5.5625 -2.5 L 12.15625 -2.5 L 12.15625 0 L 4.25 0 C 3.914062 0 3.648438 -0.078125 3.453125 -0.234375 L 1.609375 -1.390625 C 1.421875 -1.523438 1.269531 -1.695312 1.15625 -1.90625 C 1.050781 -2.113281 1 -2.328125 1 -2.546875 L 1 -10.390625 L 12.15625 -10.390625 L 12.15625 -7.875 Z M 4.75 -7.875 "/></g></g><g style="fill:#000000;fill-opacity:1;"><g transform="translate(214.78322, 261.419638)"><path style="stroke:none" d="M 4.75 0 L 1 0 L 1 -10.390625 L 9.046875 -10.390625 C 10.242188 -10.390625 11.191406 -10.144531 11.890625 -9.65625 C 12.585938 -9.164062 12.9375 -8.40625 12.9375 -7.375 L 12.9375 -5.875 C 12.9375 -5.75 12.914062 -5.640625 12.875 -5.546875 C 12.84375 -5.453125 12.789062 -5.347656 12.71875 -5.234375 L 11.765625 -4.296875 C 11.484375 -4.003906 11.171875 -3.859375 10.828125 -3.859375 L 9.828125 -3.859375 L 13.34375 -0.09375 L 13.34375 0 L 8.703125 0 L 4.75 -4.90625 Z M 4.75 -7.875 L 4.75 -5.53125 L 8.359375 -5.53125 C 8.578125 -5.53125 8.765625 -5.609375 8.921875 -5.765625 C 9.078125 -5.929688 9.15625 -6.113281 9.15625 -6.3125 L 9.15625 -7.09375 C 9.15625 -7.320312 9.078125 -7.507812 8.921875 -7.65625 C 8.765625 -7.800781 8.582031 -7.875 8.375 -7.875 Z M 4.75 -7.875 "/></g></g><g style="fill:#ffffff;fill-opacity:1;"><g transform="translate(164.48864, 276.276104)"><path style="stroke:none" d="M 7.3125 -6.464844 L 9.835938 -6.464844 L 9.265625 -0.976562 L 9.265625 -0.96875 C 9.246094 -0.847656 9.210938 -0.730469 9.15625 -0.609375 C 9.089844 -0.464844 8.984375 -0.347656 8.839844 -0.261719 L 8.695312 -0.496094 L 8.847656 -0.265625 L 8.214844 0.148438 L 8.207031 0.152344 C 8.0625 0.234375 7.914062 0.273438 7.761719 0.273438 L 6.234375 0.273438 L 4.863281 -3.691406 L 5.125 -3.78125 L 5.382812 -3.691406 L 3.964844 0.273438 L 2.308594 0.273438 C 1.898438 0.273438 1.558594 0.125 1.289062 -0.175781 C 1.039062 -0.457031 0.890625 -0.78125 0.847656 -1.15625 L 0.277344 -6.464844 L 3.183594 -6.464844 L 3.320312 -4.394531 L 3.046875 -4.375 L 3.3125 -4.441406 C 3.324219 -4.398438 3.335938 -4.292969 3.351562 -4.121094 C 3.367188 -3.960938 3.382812 -3.769531 3.398438 -3.546875 C 3.410156 -3.324219 3.425781 -3.101562 3.4375 -2.871094 C 3.445312 -2.636719 3.449219 -2.429688 3.441406 -2.253906 L 3.167969 -2.265625 L 2.90625 -2.355469 L 4.355469 -6.464844 L 5.878906 -6.464844 L 7.328125 -2.367188 L 7.070312 -2.277344 L 6.796875 -2.265625 C 6.789062 -2.441406 6.789062 -2.644531 6.796875 -2.875 C 6.800781 -3.101562 6.8125 -3.324219 6.828125 -3.546875 C 6.84375 -3.769531 6.859375 -3.960938 6.871094 -4.121094 C 6.886719 -4.269531 6.894531 -4.355469 6.894531 -4.375 L 6.894531 -4.386719 L 7.058594 -6.464844 Z M 7.3125 -5.914062 L 7.3125 -6.191406 L 7.585938 -6.167969 L 7.441406 -4.355469 L 7.167969 -4.375 L 7.445312 -4.375 C 7.445312 -4.339844 7.4375 -4.234375 7.421875 -4.070312 C 7.40625 -3.914062 7.390625 -3.730469 7.378906 -3.511719 C 7.363281 -3.292969 7.351562 -3.074219 7.34375 -2.855469 C 7.335938 -2.636719 7.335938 -2.449219 7.34375 -2.289062 L 6.808594 -2.183594 L 5.425781 -6.097656 L 5.683594 -6.191406 L 5.683594 -5.914062 L 4.550781 -5.914062 L 4.550781 -6.191406 L 4.8125 -6.097656 L 3.425781 -2.171875 L 2.890625 -2.277344 C 2.898438 -2.4375 2.898438 -2.625 2.886719 -2.84375 C 2.875 -3.070312 2.863281 -3.292969 2.847656 -3.511719 C 2.832031 -3.730469 2.820312 -3.914062 2.804688 -4.070312 C 2.792969 -4.214844 2.78125 -4.292969 2.777344 -4.308594 L 2.773438 -4.332031 L 2.648438 -6.171875 L 2.925781 -6.191406 L 2.925781 -5.914062 L 0.582031 -5.914062 L 0.582031 -6.191406 L 0.855469 -6.21875 L 1.394531 -1.21875 C 1.425781 -0.960938 1.527344 -0.734375 1.699219 -0.539062 C 1.859375 -0.363281 2.0625 -0.273438 2.308594 -0.273438 L 3.769531 -0.273438 L 3.769531 0 L 3.511719 -0.09375 L 5.128906 -4.609375 L 6.691406 -0.0898438 L 6.433594 0 L 6.433594 -0.273438 L 7.761719 -0.273438 C 7.816406 -0.273438 7.875 -0.292969 7.933594 -0.328125 L 8.070312 -0.0898438 L 7.921875 -0.320312 L 8.550781 -0.726562 L 8.554688 -0.730469 C 8.601562 -0.757812 8.636719 -0.796875 8.65625 -0.839844 C 8.6875 -0.914062 8.710938 -0.984375 8.722656 -1.054688 L 8.992188 -1.011719 L 8.71875 -1.039062 L 9.257812 -6.21875 L 9.53125 -6.191406 L 9.53125 -5.914062 Z M 7.3125 -5.914062 "/></g></g><g style="fill:#ffffff;fill-opacity:1;"><g transform="translate(176.526484, 276.276104)"><path style="stroke:none" d="M 2.574219 0.273438 C 2.316406 0.273438 2.105469 0.207031 1.9375 0.0703125 L 2.109375 -0.144531 L 1.96875 0.09375 L 0.84375 -0.589844 L 0.828125 -0.601562 C 0.523438 -0.847656 0.375 -1.15625 0.375 -1.527344 L 0.375 -4.386719 C 0.375 -5.097656 0.621094 -5.628906 1.117188 -5.976562 C 1.582031 -6.300781 2.199219 -6.464844 2.96875 -6.464844 L 6.277344 -6.464844 C 6.53125 -6.464844 6.75 -6.394531 6.929688 -6.253906 L 6.761719 -6.035156 L 6.90625 -6.269531 L 8.007812 -5.601562 L 8.023438 -5.589844 C 8.160156 -5.480469 8.273438 -5.347656 8.359375 -5.191406 C 8.453125 -5.027344 8.5 -4.847656 8.5 -4.660156 L 8.5 -1.804688 C 8.5 -1.09375 8.25 -0.5625 7.753906 -0.214844 C 7.289062 0.113281 6.667969 0.273438 5.894531 0.273438 Z M 2.574219 -0.273438 L 5.894531 -0.273438 C 6.554688 -0.273438 7.070312 -0.40625 7.441406 -0.664062 C 7.78125 -0.902344 7.949219 -1.28125 7.949219 -1.804688 L 7.949219 -4.660156 C 7.949219 -4.753906 7.925781 -4.839844 7.878906 -4.921875 C 7.828125 -5.015625 7.761719 -5.097656 7.679688 -5.160156 L 7.851562 -5.375 L 7.707031 -5.140625 L 6.605469 -5.808594 L 6.59375 -5.820312 C 6.511719 -5.882812 6.40625 -5.914062 6.277344 -5.914062 L 2.96875 -5.914062 C 2.316406 -5.914062 1.804688 -5.785156 1.433594 -5.523438 C 1.09375 -5.285156 0.921875 -4.90625 0.921875 -4.386719 L 0.921875 -1.527344 C 0.921875 -1.328125 1.007812 -1.164062 1.175781 -1.027344 L 1 -0.8125 L 1.144531 -1.050781 L 2.269531 -0.367188 L 2.285156 -0.355469 C 2.351562 -0.300781 2.449219 -0.273438 2.574219 -0.273438 Z M 3.265625 -1.957031 C 3.265625 -1.902344 3.285156 -1.859375 3.320312 -1.824219 C 3.355469 -1.789062 3.40625 -1.769531 3.464844 -1.769531 L 5.429688 -1.769531 C 5.480469 -1.769531 5.527344 -1.789062 5.566406 -1.824219 C 5.601562 -1.859375 5.617188 -1.902344 5.617188 -1.957031 L 5.617188 -4.234375 C 5.617188 -4.285156 5.601562 -4.332031 5.566406 -4.363281 C 5.527344 -4.402344 5.480469 -4.417969 5.421875 -4.417969 L 3.453125 -4.417969 C 3.402344 -4.417969 3.355469 -4.402344 3.320312 -4.363281 C 3.285156 -4.332031 3.265625 -4.285156 3.265625 -4.234375 Z M 2.714844 -1.957031 L 2.714844 -4.234375 C 2.714844 -4.441406 2.789062 -4.621094 2.9375 -4.761719 C 3.082031 -4.898438 3.253906 -4.96875 3.453125 -4.96875 L 5.421875 -4.96875 C 5.625 -4.96875 5.800781 -4.898438 5.945312 -4.761719 C 6.09375 -4.621094 6.167969 -4.441406 6.167969 -4.234375 L 6.167969 -1.957031 C 6.167969 -1.746094 6.09375 -1.570312 5.945312 -1.429688 C 5.800781 -1.289062 5.628906 -1.21875 5.429688 -1.21875 L 3.464844 -1.21875 C 3.257812 -1.21875 3.082031 -1.289062 2.9375 -1.429688 C 2.789062 -1.570312 2.714844 -1.746094 2.714844 -1.957031 Z M 2.714844 -1.957031 "/></g></g><g style="fill:#ffffff;fill-opacity:1;"><g transform="translate(187.311224, 276.276104)"><path style="stroke:none" d="M 6.464844 -6.191406 L 6.464844 -4.035156 L 4.113281 -4.035156 C 4.082031 -4.035156 4.058594 -4.035156 4.046875 -4.03125 C 4.050781 -4.03125 4.054688 -4.03125 4.058594 -4.035156 C 4.058594 -4.035156 4.058594 -4.035156 4.054688 -4.035156 C 4.046875 -4.027344 4.035156 -4.019531 4.019531 -4.007812 L 4.015625 -4.007812 L 3.222656 -3.46875 L 3.066406 -3.695312 L 3.34375 -3.695312 L 3.34375 0.273438 L 0.460938 0.273438 L 0.460938 -6.464844 L 2.78125 -6.464844 L 3.242188 -5.457031 L 2.992188 -5.34375 L 2.824219 -5.5625 L 3.996094 -6.464844 L 6.464844 -6.464844 Z M 5.914062 -6.191406 L 6.191406 -6.191406 L 6.191406 -5.914062 L 4.089844 -5.914062 L 4.089844 -6.191406 L 4.257812 -5.972656 L 2.882812 -4.914062 L 2.355469 -6.078125 L 2.605469 -6.191406 L 2.605469 -5.914062 L 0.738281 -5.914062 L 0.738281 -6.191406 L 1.011719 -6.191406 L 1.011719 0 L 0.738281 0 L 0.738281 -0.273438 L 3.066406 -0.273438 L 3.066406 0 L 2.792969 0 L 2.792969 -3.839844 L 3.703125 -4.460938 L 3.859375 -4.234375 L 3.699219 -4.457031 C 3.78125 -4.515625 3.855469 -4.550781 3.925781 -4.566406 C 3.980469 -4.578125 4.039062 -4.585938 4.113281 -4.585938 L 6.191406 -4.585938 L 6.191406 -4.308594 L 5.914062 -4.308594 Z M 5.914062 -6.191406 "/></g></g><g style="fill:#ffffff;fill-opacity:1;"><g transform="translate(195.655683, 276.276104)"><path style="stroke:none" d="M 3.464844 -0.914062 C 3.464844 -0.617188 3.347656 -0.398438 3.109375 -0.257812 L 2.464844 0.144531 L 2.320312 -0.0898438 L 2.480469 0.132812 C 2.351562 0.226562 2.203125 0.273438 2.035156 0.273438 L 0.570312 0.273438 L 0.570312 -7.015625 C 0.570312 -7.308594 0.6875 -7.527344 0.925781 -7.667969 L 1.066406 -7.433594 L 0.917969 -7.664062 L 1.554688 -8.070312 L 1.703125 -7.839844 L 1.542969 -8.0625 C 1.671875 -8.15625 1.824219 -8.203125 2 -8.203125 L 3.464844 -8.203125 Z M 2.914062 -0.914062 L 2.914062 -7.925781 L 3.1875 -7.925781 L 3.1875 -7.652344 L 2 -7.652344 C 1.945312 -7.652344 1.898438 -7.640625 1.867188 -7.617188 L 1.859375 -7.613281 L 1.210938 -7.199219 L 1.207031 -7.195312 C 1.152344 -7.164062 1.121094 -7.101562 1.121094 -7.015625 L 1.121094 0 L 0.847656 0 L 0.847656 -0.273438 L 2.035156 -0.273438 C 2.085938 -0.273438 2.125 -0.285156 2.15625 -0.308594 L 2.164062 -0.316406 L 2.828125 -0.730469 C 2.882812 -0.765625 2.914062 -0.824219 2.914062 -0.914062 Z M 2.914062 -0.914062 "/></g></g><g style="fill:#ffffff;fill-opacity:1;"><g transform="translate(201.614827, 276.276104)"><path style="stroke:none" d="M 5.585938 -5.738281 L 5.585938 -8.203125 L 8.464844 -8.203125 L 8.464844 0.273438 L 5.886719 0.273438 L 5.597656 -0.703125 L 5.859375 -0.78125 L 6.023438 -0.558594 L 4.894531 0.273438 L 2.308594 0.273438 C 1.75 0.273438 1.289062 0.09375 0.925781 -0.265625 C 0.566406 -0.628906 0.382812 -1.089844 0.382812 -1.648438 L 0.382812 -4.695312 C 0.382812 -5.253906 0.539062 -5.691406 0.851562 -6 C 1.160156 -6.308594 1.59375 -6.464844 2.15625 -6.464844 L 5.359375 -6.464844 L 6.027344 -5.957031 L 5.859375 -5.738281 Z M 6.136719 -5.183594 L 5.101562 -5.972656 L 5.265625 -6.191406 L 5.265625 -5.914062 L 2.15625 -5.914062 C 1.746094 -5.914062 1.441406 -5.8125 1.238281 -5.609375 C 1.035156 -5.40625 0.933594 -5.101562 0.933594 -4.695312 L 0.933594 -1.648438 C 0.933594 -1.242188 1.0625 -0.910156 1.316406 -0.65625 C 1.570312 -0.402344 1.902344 -0.273438 2.308594 -0.273438 L 4.804688 -0.273438 L 4.804688 0 L 4.640625 -0.222656 L 6.011719 -1.234375 L 6.355469 -0.078125 L 6.089844 0 L 6.089844 -0.273438 L 8.191406 -0.273438 L 8.191406 0 L 7.917969 0 L 7.917969 -7.925781 L 8.191406 -7.925781 L 8.191406 -7.652344 L 5.859375 -7.652344 L 5.859375 -7.925781 L 6.136719 -7.925781 Z M 3.277344 -1.957031 C 3.277344 -1.902344 3.292969 -1.855469 3.328125 -1.820312 C 3.363281 -1.789062 3.40625 -1.769531 3.464844 -1.769531 L 5.859375 -1.769531 L 5.859375 -1.496094 L 5.585938 -1.496094 L 5.585938 -4.695312 L 5.859375 -4.695312 L 5.859375 -4.417969 L 3.464844 -4.417969 C 3.40625 -4.417969 3.363281 -4.402344 3.328125 -4.367188 C 3.292969 -4.335938 3.277344 -4.289062 3.277344 -4.234375 Z M 2.726562 -1.957031 L 2.726562 -4.234375 C 2.726562 -4.441406 2.796875 -4.617188 2.9375 -4.757812 C 3.082031 -4.898438 3.253906 -4.96875 3.464844 -4.96875 L 6.136719 -4.96875 L 6.136719 -1.21875 L 3.464844 -1.21875 C 3.253906 -1.21875 3.082031 -1.292969 2.9375 -1.433594 C 2.796875 -1.574219 2.726562 -1.75 2.726562 -1.957031 Z M 2.726562 -1.957031 "/></g></g><g style="fill:#000000;fill-opacity:1;"><g transform="translate(164.48864, 276.276104)"><path style="stroke:none" d="M 7.3125 -6.1875 L 9.53125 -6.1875 L 9 -1.015625 C 8.976562 -0.921875 8.945312 -0.820312 8.90625 -0.71875 C 8.863281 -0.625 8.796875 -0.550781 8.703125 -0.5 L 8.078125 -0.09375 C 7.972656 -0.03125 7.867188 0 7.765625 0 L 6.4375 0 L 5.125 -3.78125 L 3.765625 0 L 2.3125 0 C 1.976562 0 1.703125 -0.117188 1.484375 -0.359375 C 1.273438 -0.597656 1.15625 -0.875 1.125 -1.1875 L 0.578125 -6.1875 L 2.921875 -6.1875 L 3.046875 -4.375 C 3.054688 -4.34375 3.066406 -4.25 3.078125 -4.09375 C 3.097656 -3.9375 3.113281 -3.75 3.125 -3.53125 C 3.132812 -3.3125 3.144531 -3.085938 3.15625 -2.859375 C 3.164062 -2.628906 3.171875 -2.429688 3.171875 -2.265625 L 4.546875 -6.1875 L 5.6875 -6.1875 L 7.078125 -2.28125 C 7.066406 -2.445312 7.0625 -2.640625 7.0625 -2.859375 C 7.070312 -3.085938 7.082031 -3.3125 7.09375 -3.53125 C 7.113281 -3.75 7.128906 -3.9375 7.140625 -4.09375 C 7.160156 -4.25 7.171875 -4.34375 7.171875 -4.375 Z M 7.3125 -6.1875 "/></g></g><g style="fill:#000000;fill-opacity:1;"><g transform="translate(176.526484, 276.276104)"><path style="stroke:none" d="M 2.578125 0 C 2.378906 0 2.222656 -0.046875 2.109375 -0.140625 L 1 -0.8125 C 0.769531 -1 0.65625 -1.238281 0.65625 -1.53125 L 0.65625 -4.390625 C 0.65625 -5.003906 0.863281 -5.457031 1.28125 -5.75 C 1.695312 -6.039062 2.257812 -6.1875 2.96875 -6.1875 L 6.28125 -6.1875 C 6.46875 -6.1875 6.628906 -6.132812 6.765625 -6.03125 L 7.859375 -5.375 C 7.960938 -5.289062 8.050781 -5.1875 8.125 -5.0625 C 8.195312 -4.9375 8.234375 -4.800781 8.234375 -4.65625 L 8.234375 -1.796875 C 8.234375 -1.179688 8.019531 -0.726562 7.59375 -0.4375 C 7.175781 -0.144531 6.609375 0 5.890625 0 Z M 2.984375 -1.953125 C 2.984375 -1.828125 3.03125 -1.71875 3.125 -1.625 C 3.21875 -1.539062 3.332031 -1.5 3.46875 -1.5 L 5.4375 -1.5 C 5.5625 -1.5 5.664062 -1.539062 5.75 -1.625 C 5.84375 -1.71875 5.890625 -1.828125 5.890625 -1.953125 L 5.890625 -4.234375 C 5.890625 -4.367188 5.84375 -4.476562 5.75 -4.5625 C 5.664062 -4.65625 5.554688 -4.703125 5.421875 -4.703125 L 3.453125 -4.703125 C 3.328125 -4.703125 3.21875 -4.65625 3.125 -4.5625 C 3.03125 -4.476562 2.984375 -4.367188 2.984375 -4.234375 Z M 2.984375 -1.953125 "/></g></g><g style="fill:#000000;fill-opacity:1;"><g transform="translate(187.311224, 276.276104)"><path style="stroke:none" d="M 6.1875 -6.1875 L 6.1875 -4.3125 L 4.109375 -4.3125 C 4.054688 -4.3125 4.015625 -4.304688 3.984375 -4.296875 C 3.953125 -4.296875 3.910156 -4.273438 3.859375 -4.234375 L 3.0625 -3.703125 L 3.0625 0 L 0.734375 0 L 0.734375 -6.1875 L 2.609375 -6.1875 L 2.984375 -5.34375 L 4.09375 -6.1875 Z M 6.1875 -6.1875 "/></g></g><g style="fill:#000000;fill-opacity:1;"><g transform="translate(195.655683, 276.276104)"><path style="stroke:none" d="M 3.1875 -0.90625 C 3.1875 -0.71875 3.113281 -0.582031 2.96875 -0.5 L 2.328125 -0.09375 C 2.242188 -0.03125 2.144531 0 2.03125 0 L 0.84375 0 L 0.84375 -7.015625 C 0.84375 -7.203125 0.914062 -7.34375 1.0625 -7.4375 L 1.703125 -7.84375 C 1.785156 -7.90625 1.882812 -7.9375 2 -7.9375 L 3.1875 -7.9375 Z M 3.1875 -0.90625 "/></g></g><g style="fill:#000000;fill-opacity:1;"><g transform="translate(201.614827, 276.276104)"><path style="stroke:none" d="M 5.859375 -5.734375 L 5.859375 -7.9375 L 8.1875 -7.9375 L 8.1875 0 L 6.09375 0 L 5.859375 -0.78125 L 4.8125 0 L 2.3125 0 C 1.820312 0 1.421875 -0.148438 1.109375 -0.453125 C 0.804688 -0.765625 0.65625 -1.164062 0.65625 -1.65625 L 0.65625 -4.703125 C 0.65625 -5.179688 0.785156 -5.546875 1.046875 -5.796875 C 1.304688 -6.054688 1.675781 -6.1875 2.15625 -6.1875 L 5.265625 -6.1875 Z M 3 -1.953125 C 3 -1.828125 3.039062 -1.71875 3.125 -1.625 C 3.21875 -1.539062 3.332031 -1.5 3.46875 -1.5 L 5.859375 -1.5 L 5.859375 -4.703125 L 3.46875 -4.703125 C 3.332031 -4.703125 3.21875 -4.65625 3.125 -4.5625 C 3.039062 -4.476562 3 -4.367188 3 -4.234375 Z M 3 -1.953125 "/></g></g><g clip-rule="nonzero" clip-path="url(#85ffea5888)"><g clip-rule="nonzero" clip-path="url(#fce4346eb4)"><g clip-rule="nonzero" clip-path="url(#142359046d)"><path style=" stroke:none;fill-rule:evenodd;fill:#000000;fill-opacity:1;" d="M 244.863281 247.609375 C 247.460938 244.835938 250.625 242.519531 253.589844 240.902344 C 257.746094 238.632812 262.550781 237.074219 267.050781 237.089844 C 270.332031 237.105469 273.925781 238.015625 275.824219 240.78125 C 276.085938 241.160156 276.3125 241.574219 276.492188 242.011719 C 277.660156 244.796875 276.976562 247.941406 275.511719 250.824219 C 276.140625 248.617188 276.207031 246.347656 275.339844 244.273438 C 275.136719 243.785156 274.882812 243.328125 274.59375 242.898438 C 272.566406 239.949219 268.824219 238.933594 265.304688 238.917969 C 260.761719 238.898438 255.921875 240.460938 251.71875 242.753906 C 249.371094 244.035156 246.996094 245.679688 244.863281 247.609375 "/></g></g></g><g clip-rule="nonzero" clip-path="url(#05617a606b)"><g clip-rule="nonzero" clip-path="url(#3db58efdce)"><g clip-rule="nonzero" clip-path="url(#3dec771fbc)"><path style=" stroke:none;fill-rule:evenodd;fill:#000000;fill-opacity:1;" d="M 241.742188 253.273438 L 241.820312 253.28125 C 242.292969 248.875 243.0625 248.632812 247.183594 249.078125 L 247.191406 249.007812 C 243.070312 248.558594 242.371094 248.160156 242.847656 243.753906 L 242.769531 243.746094 C 242.292969 248.152344 241.523438 248.394531 237.40625 247.949219 L 237.398438 248.023438 C 241.515625 248.46875 242.21875 248.867188 241.742188 253.273438 "/></g></g></g><g clip-rule="nonzero" clip-path="url(#066c1fdacc)"><g clip-rule="nonzero" clip-path="url(#4deea8d10b)"><g clip-rule="nonzero" clip-path="url(#de3b3f732f)"><path style=" stroke:none;fill-rule:evenodd;fill:#000000;fill-opacity:1;" d="M 244.433594 245.636719 C 247.234375 242.460938 250.683594 239.777344 253.929688 237.878906 C 258.484375 235.210938 263.785156 233.316406 268.796875 233.1875 C 272.457031 233.09375 276.488281 233.988281 278.691406 237.003906 C 279 237.421875 279.261719 237.875 279.480469 238.355469 C 280.871094 241.421875 280.214844 244.949219 278.679688 248.203125 C 279.304688 245.722656 279.304688 243.195312 278.265625 240.914062 C 278.023438 240.378906 277.730469 239.875 277.390625 239.410156 C 275.035156 236.1875 270.839844 235.179688 266.914062 235.28125 C 261.851562 235.410156 256.515625 237.304688 251.910156 240 C 249.335938 241.507812 246.746094 243.414062 244.433594 245.636719 "/></g></g></g></g></svg>