<svg xmlns="http://www.w3.org/2000/svg" xmlns:xlink="http://www.w3.org/1999/xlink" width="500" zoomAndPan="magnify" viewBox="0 0 375 374.999991" height="500" preserveAspectRatio="xMidYMid meet" version="1.2"><defs><clipPath id="4726252eb5"><path d="M 112.5 112.5 L 262.5 112.5 L 262.5 262.5 L 112.5 262.5 Z M 112.5 112.5 "/></clipPath></defs><g id="20592409de"><g clip-rule="nonzero" clip-path="url(#4726252eb5)"><path style=" stroke:none;fill-rule:nonzero;fill:#f44c71;fill-opacity:1;" d="M 262.5 187.5 C 262.5 188.726562 262.46875 189.953125 262.410156 191.179688 C 262.347656 192.40625 262.257812 193.628906 262.140625 194.851562 C 262.019531 196.074219 261.867188 197.289062 261.6875 198.503906 C 261.507812 199.71875 261.296875 200.929688 261.058594 202.132812 C 260.820312 203.335938 260.550781 204.53125 260.253906 205.722656 C 259.953125 206.914062 259.625 208.097656 259.269531 209.269531 C 258.914062 210.445312 258.527344 211.609375 258.117188 212.765625 C 257.703125 213.921875 257.261719 215.066406 256.789062 216.203125 C 256.320312 217.335938 255.824219 218.457031 255.300781 219.566406 C 254.773438 220.675781 254.222656 221.773438 253.644531 222.855469 C 253.066406 223.9375 252.460938 225.003906 251.828125 226.058594 C 251.199219 227.109375 250.542969 228.148438 249.859375 229.167969 C 249.179688 230.1875 248.472656 231.191406 247.742188 232.175781 C 247.007812 233.164062 246.253906 234.128906 245.476562 235.078125 C 244.695312 236.027344 243.894531 236.957031 243.070312 237.867188 C 242.246094 238.777344 241.402344 239.664062 240.53125 240.53125 C 239.664062 241.402344 238.777344 242.246094 237.867188 243.070312 C 236.957031 243.894531 236.027344 244.695312 235.078125 245.476562 C 234.128906 246.253906 233.164062 247.007812 232.175781 247.742188 C 231.191406 248.472656 230.1875 249.179688 229.167969 249.859375 C 228.148438 250.542969 227.109375 251.199219 226.058594 251.828125 C 225.003906 252.460938 223.9375 253.066406 222.855469 253.644531 C 221.773438 254.222656 220.675781 254.773438 219.566406 255.300781 C 218.457031 255.824219 217.335938 256.320312 216.203125 256.789062 C 215.066406 257.261719 213.921875 257.703125 212.765625 258.117188 C 211.609375 258.527344 210.445312 258.914062 209.269531 259.269531 C 208.097656 259.625 206.914062 259.953125 205.722656 260.253906 C 204.53125 260.550781 203.335938 260.820312 202.132812 261.058594 C 200.929688 261.296875 199.71875 261.507812 198.503906 261.6875 C 197.289062 261.867188 196.074219 262.019531 194.851562 262.140625 C 193.628906 262.257812 192.40625 262.347656 191.179688 262.410156 C 189.953125 262.46875 188.726562 262.5 187.5 262.5 C 186.273438 262.5 185.046875 262.46875 183.820312 262.410156 C 182.59375 262.347656 181.371094 262.257812 180.148438 262.140625 C 178.925781 262.019531 177.710938 261.867188 176.496094 261.6875 C 175.28125 261.507812 174.070312 261.296875 172.867188 261.058594 C 171.664062 260.820312 170.46875 260.550781 169.277344 260.253906 C 168.085938 259.953125 166.902344 259.625 165.730469 259.269531 C 164.554688 258.914062 163.390625 258.527344 162.234375 258.117188 C 161.078125 257.703125 159.933594 257.261719 158.796875 256.789062 C 157.664062 256.320312 156.542969 255.824219 155.433594 255.300781 C 154.324219 254.773438 153.226562 254.222656 152.144531 253.644531 C 151.0625 253.066406 149.996094 252.460938 148.941406 251.828125 C 147.890625 251.199219 146.851562 250.542969 145.832031 249.859375 C 144.8125 249.179688 143.808594 248.472656 142.824219 247.742188 C 141.835938 247.007812 140.871094 246.253906 139.921875 245.476562 C 138.972656 244.695312 138.042969 243.894531 137.132812 243.070312 C 136.222656 242.246094 135.335938 241.402344 134.46875 240.53125 C 133.597656 239.664062 132.753906 238.777344 131.929688 237.867188 C 131.105469 236.957031 130.304688 236.027344 129.523438 235.078125 C 128.746094 234.128906 127.992188 233.164062 127.257812 232.175781 C 126.527344 231.191406 125.820312 230.1875 125.140625 229.167969 C 124.457031 228.148438 123.800781 227.109375 123.171875 226.058594 C 122.539062 225.003906 121.933594 223.9375 121.355469 222.855469 C 120.777344 221.773438 120.226562 220.675781 119.699219 219.566406 C 119.175781 218.457031 118.679688 217.335938 118.210938 216.203125 C 117.738281 215.066406 117.296875 213.921875 116.882812 212.765625 C 116.46875 211.609375 116.085938 210.445312 115.730469 209.269531 C 115.375 208.097656 115.046875 206.914062 114.746094 205.722656 C 114.449219 204.53125 114.179688 203.335938 113.941406 202.132812 C 113.703125 200.929688 113.492188 199.71875 113.3125 198.503906 C 113.132812 197.289062 112.980469 196.074219 112.859375 194.851562 C 112.742188 193.628906 112.652344 192.40625 112.589844 191.179688 C 112.53125 189.953125 112.5 188.726562 112.5 187.5 C 112.5 186.273438 112.53125 185.046875 112.589844 183.820312 C 112.652344 182.59375 112.742188 181.371094 112.859375 180.148438 C 112.980469 178.925781 113.132812 177.710938 113.3125 176.496094 C 113.492188 175.28125 113.703125 174.070312 113.941406 172.867188 C 114.179688 171.664062 114.449219 170.46875 114.746094 169.277344 C 115.046875 168.085938 115.375 166.902344 115.730469 165.730469 C 116.085938 164.554688 116.46875 163.390625 116.882812 162.234375 C 117.296875 161.078125 117.738281 159.933594 118.210938 158.796875 C 118.679688 157.664062 119.175781 156.542969 119.699219 155.433594 C 120.226562 154.324219 120.777344 153.226562 121.355469 152.144531 C 121.933594 151.0625 122.539062 149.996094 123.171875 148.941406 C 123.800781 147.890625 124.457031 146.851562 125.140625 145.832031 C 125.820312 144.8125 126.527344 143.808594 127.257812 142.824219 C 127.992188 141.835938 128.746094 140.871094 129.523438 139.921875 C 130.304688 138.972656 131.105469 138.042969 131.929688 137.132812 C 132.753906 136.222656 133.597656 135.335938 134.46875 134.46875 C 135.335938 133.597656 136.222656 132.753906 137.132812 131.929688 C 138.042969 131.105469 138.972656 130.304688 139.921875 129.523438 C 140.871094 128.746094 141.835938 127.992188 142.824219 127.257812 C 143.808594 126.527344 144.8125 125.820312 145.832031 125.140625 C 146.851562 124.457031 147.890625 123.800781 148.941406 123.171875 C 149.996094 122.539062 151.0625 121.933594 152.144531 121.355469 C 153.226562 120.777344 154.324219 120.226562 155.433594 119.699219 C 156.542969 119.175781 157.664062 118.679688 158.796875 118.210938 C 159.933594 117.738281 161.078125 117.296875 162.234375 116.882812 C 163.390625 116.46875 164.554688 116.085938 165.730469 115.730469 C 166.902344 115.375 168.085938 115.046875 169.277344 114.746094 C 170.46875 114.449219 171.664062 114.179688 172.867188 113.941406 C 174.070312 113.703125 175.28125 113.492188 176.496094 113.3125 C 177.710938 113.132812 178.925781 112.980469 180.148438 112.859375 C 181.371094 112.742188 182.59375 112.652344 183.820312 112.589844 C 185.046875 112.53125 186.273438 112.5 187.5 112.5 C 188.726562 112.5 189.953125 112.53125 191.179688 112.589844 C 192.40625 112.652344 193.628906 112.742188 194.851562 112.859375 C 196.074219 112.980469 197.289062 113.132812 198.503906 113.3125 C 199.71875 113.492188 200.929688 113.703125 202.132812 113.941406 C 203.335938 114.179688 204.53125 114.449219 205.722656 114.746094 C 206.914062 115.046875 208.097656 115.375 209.269531 115.730469 C 210.445312 116.085938 211.609375 116.46875 212.765625 116.882812 C 213.921875 117.296875 215.066406 117.738281 216.203125 118.210938 C 217.335938 118.679688 218.457031 119.175781 219.566406 119.699219 C 220.675781 120.226562 221.773438 120.777344 222.855469 121.355469 C 223.9375 121.933594 225.003906 122.539062 226.058594 123.171875 C 227.109375 123.800781 228.148438 124.457031 229.167969 125.140625 C 230.1875 125.820312 231.191406 126.527344 232.175781 127.257812 C 233.164062 127.992188 234.128906 128.746094 235.078125 129.523438 C 236.027344 130.304688 236.957031 131.105469 237.867188 131.929688 C 238.777344 132.753906 239.664062 133.597656 240.53125 134.46875 C 241.402344 135.335938 242.246094 136.222656 243.070312 137.132812 C 243.894531 138.042969 244.695312 138.972656 245.476562 139.921875 C 246.253906 140.871094 247.007812 141.835938 247.742188 142.824219 C 248.472656 143.808594 249.179688 144.8125 249.859375 145.832031 C 250.542969 146.851562 251.199219 147.890625 251.828125 148.941406 C 252.460938 149.996094 253.066406 151.0625 253.644531 152.144531 C 254.222656 153.226562 254.773438 154.324219 255.300781 155.433594 C 255.824219 156.542969 256.320312 157.664062 256.789062 158.796875 C 257.261719 159.933594 257.703125 161.078125 258.117188 162.234375 C 258.527344 163.390625 258.914062 164.554688 259.269531 165.730469 C 259.625 166.902344 259.953125 168.085938 260.253906 169.277344 C 260.550781 170.46875 260.820312 171.664062 261.058594 172.867188 C 261.296875 174.070312 261.507812 175.28125 261.6875 176.496094 C 261.867188 177.710938 262.019531 178.925781 262.140625 180.148438 C 262.257812 181.371094 262.347656 182.59375 262.410156 183.820312 C 262.46875 185.046875 262.5 186.273438 262.5 187.5 Z M 262.5 187.5 "/></g><path style=" stroke:none;fill-rule:evenodd;fill:#ffffff;fill-opacity:1;" d="M 146.257812 211.355469 L 146.257812 161.675781 C 146.257812 152.222656 152.109375 144.515625 159.3125 144.515625 L 215.746094 144.515625 C 222.945312 144.515625 228.796875 152.222656 228.796875 161.675781 L 228.796875 211.355469 C 194.140625 211.355469 180.636719 211.355469 146.257812 211.355469 Z M 158.972656 167.46875 C 158.972656 167.808594 159.253906 168.144531 159.648438 168.144531 L 215.351562 168.144531 C 215.746094 168.144531 216.082031 167.808594 216.082031 167.46875 C 216.082031 167.074219 215.746094 166.738281 215.351562 166.738281 L 159.648438 166.738281 C 159.253906 166.738281 158.972656 167.074219 158.972656 167.46875 Z M 158.972656 159.3125 C 158.972656 159.707031 159.253906 159.988281 159.648438 159.988281 L 215.351562 159.988281 C 215.746094 159.988281 216.082031 159.707031 216.082031 159.3125 C 216.082031 158.917969 215.746094 158.582031 215.351562 158.582031 L 159.648438 158.582031 C 159.253906 158.582031 158.972656 158.917969 158.972656 159.3125 Z M 194.363281 194.195312 C 195.320312 194.195312 196.332031 193.96875 197.175781 193.40625 C 198.585938 192.5625 199.035156 191.101562 199.035156 189.582031 L 199.035156 180.636719 C 199.035156 180.242188 198.753906 179.90625 198.359375 179.90625 C 197.964844 179.90625 197.628906 180.242188 197.628906 180.636719 L 197.628906 189.636719 C 197.628906 189.636719 197.628906 189.636719 197.628906 189.695312 C 197.738281 190.761719 197.347656 191.664062 196.445312 192.226562 C 195.265625 192.957031 193.464844 192.957031 192.226562 192.226562 C 191.324219 191.664062 190.933594 190.761719 191.042969 189.695312 C 191.042969 189.695312 191.042969 189.636719 191.042969 189.636719 L 191.042969 180.636719 C 191.042969 180.242188 190.707031 179.90625 190.3125 179.90625 C 189.917969 179.90625 189.636719 180.242188 189.636719 180.636719 L 189.636719 189.582031 C 189.636719 191.101562 190.089844 192.5625 191.496094 193.40625 C 192.339844 193.96875 193.351562 194.195312 194.363281 194.195312 Z M 203.871094 194.140625 C 204.097656 194.140625 204.324219 194.082031 204.492188 193.859375 L 208.597656 188.289062 L 212.59375 193.859375 C 212.707031 194.082031 212.929688 194.140625 213.15625 194.140625 C 213.324219 194.140625 213.4375 194.140625 213.605469 194.027344 C 213.886719 193.800781 213.945312 193.351562 213.71875 193.070312 L 209.5 187.105469 L 213.886719 181.3125 C 214.113281 180.972656 214.054688 180.523438 213.71875 180.296875 C 213.382812 180.074219 212.988281 180.128906 212.707031 180.46875 L 208.65625 185.925781 L 204.605469 180.242188 C 204.378906 179.90625 203.929688 179.847656 203.589844 180.074219 C 203.308594 180.296875 203.253906 180.75 203.480469 181.03125 L 207.753906 187.105469 L 203.308594 193.015625 C 203.085938 193.351562 203.140625 193.800781 203.480469 194.027344 C 203.589844 194.140625 203.761719 194.140625 203.871094 194.140625 Z M 175.515625 193.183594 C 175.910156 193.183594 176.246094 192.902344 176.246094 192.507812 L 176.246094 179.679688 C 176.246094 179.285156 175.910156 179.003906 175.515625 179.003906 C 175.121094 179.003906 174.839844 179.285156 174.839844 179.679688 L 174.839844 192.507812 C 174.839844 192.902344 175.121094 193.183594 175.515625 193.183594 Z M 161.789062 178.949219 C 161.394531 178.949219 161.054688 179.285156 161.054688 179.679688 L 161.054688 188.625 C 161.054688 190.144531 161.5625 191.605469 162.914062 192.453125 C 163.757812 193.015625 164.769531 193.238281 165.78125 193.238281 C 166.738281 193.238281 167.75 193.015625 168.59375 192.453125 C 170 191.605469 170.453125 190.144531 170.453125 188.625 L 170.453125 179.679688 C 170.453125 179.285156 170.171875 178.949219 169.777344 178.949219 C 169.382812 178.949219 169.046875 179.285156 169.046875 179.679688 L 169.046875 188.679688 C 169.046875 188.679688 169.046875 188.738281 169.046875 188.738281 C 169.15625 189.808594 168.765625 190.707031 167.863281 191.269531 C 166.683594 192 164.882812 192 163.644531 191.269531 C 162.742188 190.707031 162.351562 189.808594 162.460938 188.738281 C 162.460938 188.738281 162.460938 188.679688 162.460938 188.679688 L 162.460938 179.679688 C 162.460938 179.285156 162.125 178.949219 161.789062 178.949219 Z M 180.074219 197.289062 C 180.355469 197.289062 180.636719 197.066406 180.75 196.785156 L 186.09375 176.753906 C 186.207031 176.359375 185.980469 175.964844 185.585938 175.910156 C 185.25 175.796875 184.855469 176.023438 184.742188 176.359375 L 179.398438 196.390625 C 179.285156 196.785156 179.511719 197.175781 179.90625 197.289062 C 179.960938 197.289062 180.015625 197.289062 180.074219 197.289062 Z M 180.074219 197.289062 "/><path style=" stroke:none;fill-rule:evenodd;fill:#ffffff;fill-opacity:1;" d="M 219.34375 230.484375 L 155.710938 230.484375 C 146.765625 230.484375 139.507812 223.226562 139.507812 214.339844 C 139.507812 213.492188 140.183594 212.875 140.96875 212.875 L 179.285156 212.875 L 179.339844 212.929688 L 179.453125 212.929688 L 179.511719 212.988281 L 179.621094 212.988281 L 179.621094 213.042969 L 179.734375 213.042969 L 179.734375 213.101562 L 179.792969 213.101562 L 179.847656 213.15625 L 179.90625 213.210938 L 179.960938 213.210938 L 179.960938 213.269531 L 180.015625 213.269531 L 180.015625 213.324219 L 180.074219 213.324219 L 180.074219 213.382812 L 180.128906 213.4375 L 180.128906 213.492188 L 180.1875 213.492188 L 180.1875 213.550781 L 180.242188 213.605469 L 180.242188 213.664062 L 180.296875 213.664062 L 180.296875 213.773438 L 180.355469 213.832031 L 180.355469 213.945312 L 180.410156 214 L 180.410156 218.671875 L 194.589844 218.671875 L 194.589844 214.339844 C 194.589844 213.832031 194.871094 213.4375 195.207031 213.15625 L 195.207031 213.101562 L 195.265625 213.101562 L 195.320312 213.042969 L 195.433594 213.042969 L 195.433594 212.988281 L 195.546875 212.988281 L 195.546875 212.929688 L 195.714844 212.929688 L 195.714844 212.875 L 234.085938 212.875 C 234.875 212.875 235.550781 213.492188 235.550781 214.339844 C 235.550781 223.226562 228.292969 230.484375 219.34375 230.484375 Z M 219.34375 230.484375 "/></g></svg>